<?xml version="1.0" standalone="no"?>
<!DOCTYPE svg PUBLIC "-//W3C//DTD SVG 20010904//EN"
 "http://www.w3.org/TR/2001/REC-SVG-20010904/DTD/svg10.dtd">
<svg version="1.0" xmlns="http://www.w3.org/2000/svg"
 width="4160.000000pt" height="4160.000000pt" viewBox="0 0 4160.000000 4160.000000"
 preserveAspectRatio="xMidYMid meet">

<g transform="translate(0.000000,4160.000000) scale(0.100000,-0.100000)"
fill="#000000" stroke="none">
<path d="M22126 40352 c-3 -5 -26 -92 -51 -193 -49 -194 -116 -450 -140 -534
-39 -136 -130 -440 -155 -520 -34 -108 -150 -508 -180 -620 -12 -44 -28 -105
-37 -135 -8 -30 -18 -68 -23 -85 -4 -16 -31 -106 -58 -200 -27 -93 -73 -258
-102 -365 -29 -107 -69 -256 -90 -330 -21 -74 -59 -211 -85 -305 -82 -295
-172 -496 -339 -755 -73 -112 -96 -149 -96 -155 0 -3 -19 -36 -41 -73 -23 -37
-74 -123 -114 -192 -40 -69 -105 -181 -145 -250 -126 -215 -150 -259 -150
-270 0 -5 -4 -10 -8 -10 -4 0 -13 -12 -19 -27 -7 -16 -24 -48 -39 -73 -44 -73
-106 -184 -108 -195 -1 -5 -8 -21 -16 -35 -28 -49 -90 -185 -90 -197 0 -7 -4
-13 -10 -13 -5 0 -10 -6 -10 -12 0 -7 -18 -49 -39 -93 -125 -256 -156 -327
-209 -490 -67 -202 -78 -247 -91 -390 -13 -142 -6 -3281 8 -3518 24 -413 41
-458 240 -646 73 -69 143 -134 155 -143 191 -151 328 -268 506 -433 108 -100
264 -238 299 -265 19 -14 39 -30 45 -35 6 -6 85 -75 176 -155 91 -79 217 -194
280 -255 124 -121 182 -173 275 -250 65 -54 119 -101 145 -126 9 -8 110 -98
226 -199 115 -101 211 -186 214 -189 3 -3 23 -21 45 -40 22 -19 76 -66 120
-106 44 -40 193 -170 330 -290 272 -237 552 -491 760 -690 12 -11 41 -38 66
-59 24 -22 118 -110 209 -197 91 -87 183 -173 204 -191 22 -18 49 -43 60 -55
11 -13 23 -23 27 -23 4 0 31 -23 60 -51 30 -28 114 -101 188 -162 74 -62 172
-145 219 -185 46 -41 88 -70 92 -65 10 10 10 321 6 4953 -2 3300 -4 3660 -19
3705 -14 47 -31 92 -87 240 -34 90 -178 365 -255 490 -38 61 -82 135 -100 165
-17 30 -60 102 -95 160 -35 58 -68 114 -74 125 -6 11 -60 101 -119 200 -235
390 -339 560 -353 576 -7 8 -14 18 -14 21 0 4 -25 42 -55 86 -30 44 -69 107
-86 139 -17 32 -55 99 -84 148 -41 69 -70 140 -125 303 -82 248 -155 509 -199
713 -53 243 -72 321 -101 414 -62 202 -91 303 -165 565 -42 151 -90 318 -105
370 -89 296 -203 693 -235 813 -20 77 -52 186 -71 243 -19 58 -44 146 -55 197
-22 105 -33 137 -66 190 -23 36 -37 45 -47 29z m1554 -5112 l0 -40 40 0 40 0
0 -40 0 -40 40 0 40 0 0 -40 0 -40 40 0 40 0 0 -40 0 -40 40 0 40 0 0 -80 0
-80 -40 0 -40 0 0 -40 0 -40 -40 0 -40 0 0 80 0 80 -40 0 -40 0 0 80 0 80 -40
0 -40 0 0 80 0 80 -80 0 -80 0 0 40 0 40 80 0 80 0 0 -40z m320 -1080 l0 -80
40 0 40 0 0 -80 0 -80 40 0 40 0 0 -40 0 -40 -40 0 -40 0 0 -40 0 -40 40 0 40
0 0 -40 0 -40 40 0 40 0 0 40 0 40 40 0 40 0 0 -40 c0 -38 2 -40 30 -40 l30 0
0 -200 c0 -126 -4 -200 -10 -201 -5 -1 -17 -1 -25 -1 -75 0 -75 0 -75 42 0 29
-4 40 -15 40 -11 0 -15 11 -15 40 l0 40 -40 0 -40 0 0 -120 0 -120 -40 0 -40
0 0 -40 0 -40 -120 0 -120 0 0 40 0 40 -40 0 -40 0 0 -40 0 -40 -40 0 -40 0 0
120 0 120 -40 0 -40 0 0 -40 0 -40 -40 0 -40 0 0 40 0 40 40 0 40 0 0 40 0 40
40 0 40 0 0 40 0 40 -40 0 -40 0 0 40 0 40 40 0 40 0 0 40 0 40 40 0 40 0 0
40 0 40 40 0 40 0 0 80 0 80 40 0 40 0 0 160 0 160 40 0 40 0 0 -80z m-320
-360 l0 -40 -40 0 -40 0 0 40 0 40 40 0 40 0 0 -40z m660 -2314 c0 -66 -4
-117 -10 -121 -6 -4 -10 37 -10 114 0 74 4 121 10 121 6 0 10 -45 10 -114z
m141 -208 c1 -90 2 -288 2 -440 1 -153 5 -278 9 -278 5 0 3 -9 -4 -20 -9 -14
-10 -25 -2 -37 6 -10 7 -37 3 -72 -4 -30 -7 -228 -6 -440 2 -300 -1 -385 -10
-388 -8 -3 -12 -21 -12 -46 l2 -42 6 40 c3 22 6 -102 6 -275 l0 -315 -22 -3
c-21 -3 -23 1 -23 37 0 23 5 41 10 41 14 0 13 157 -1 162 -19 6 -22 231 -10
633 7 209 15 404 18 433 5 44 3 52 -11 52 -14 0 -16 19 -16 160 0 100 -4 160
-10 160 -6 0 -10 33 -10 80 0 64 -3 80 -15 80 -11 0 -15 11 -15 40 0 29 4 40
15 40 13 0 15 20 15 120 l0 120 -40 0 -40 0 0 40 0 40 40 0 40 0 0 120 0 120
40 0 40 0 1 -162z m-561 42 l0 -40 40 0 40 0 0 -440 0 -440 40 0 40 0 0 -40 0
-40 -40 0 -40 0 0 -80 0 -80 -40 0 -40 0 0 40 0 40 -40 0 -40 0 0 40 0 40 -80
0 -80 0 0 120 0 120 -40 0 -40 0 0 80 0 80 40 0 40 0 0 40 0 40 40 0 40 0 0
40 0 40 -40 0 -40 0 0 120 0 120 40 0 40 0 0 40 0 40 -40 0 -40 0 0 40 0 40
80 0 80 0 0 40 0 40 40 0 40 0 0 -40z m-2400 -2240 l0 -40 40 0 40 0 0 -40 0
-40 -40 0 -40 0 0 -40 0 -40 -40 0 -40 0 0 40 0 40 40 0 40 0 0 40 0 40 -40 0
-40 0 0 40 0 40 40 0 40 0 0 -40z m1280 0 l0 -40 -120 0 -120 0 0 40 0 40 120
0 120 0 0 -40z m1647 -342 c-2 -13 -4 -3 -4 22 0 25 2 35 4 23 2 -13 2 -33 0
-45z m-447 -218 l0 -200 40 0 40 0 0 -200 0 -200 70 0 70 0 0 -120 c0 -113 -1
-120 -20 -120 -18 0 -20 -7 -20 -80 0 -47 -4 -80 -10 -80 -5 0 -10 -18 -10
-40 l0 -40 -40 0 -40 0 0 -40 0 -40 -40 0 -40 0 0 -80 0 -80 -30 0 -30 0 0 80
0 80 30 0 31 0 -3 158 -3 157 -75 5 -75 5 -3 78 -3 77 -79 0 -80 0 0 -81 0
-81 -117 4 -118 3 -3 38 c-3 36 -4 37 -43 37 -39 0 -39 0 -39 -40 l0 -40 -80
0 -80 0 0 40 0 40 -40 0 -40 0 0 40 0 40 40 0 40 0 0 200 0 200 40 0 40 0 0
40 0 40 40 0 40 0 0 -40 0 -40 80 0 80 0 0 40 0 40 160 0 160 0 0 40 0 40 40
0 40 0 0 40 0 40 -40 0 -40 0 0 80 0 80 40 0 40 0 0 40 0 40 40 0 40 0 0 -200z
m-2400 110 c0 -5 -18 -10 -39 -10 -23 0 -41 -5 -44 -12 -3 -10 -7 -10 -20 1
-29 24 -19 31 43 31 33 0 60 -4 60 -10z m2887 -132 c-2 -13 -4 -3 -4 22 0 25
2 35 4 23 2 -13 2 -33 0 -45z m0 -240 c-2 -13 -4 -3 -4 22 0 25 2 35 4 23 2
-13 2 -33 0 -45z m17 -812 c-2 -176 -7 -322 -9 -325 -3 -2 -6 70 -7 160 -1 90
-3 145 -5 122 -4 -43 -4 -43 -44 -43 -39 0 -39 0 -39 40 0 22 5 40 10 40 6 0
10 87 10 240 l0 240 29 0 c27 0 30 -4 34 -37 2 -21 3 -10 0 24 -2 34 0 88 4
120 13 99 23 -220 17 -581z m-184 274 l0 -120 -30 0 c-28 0 -30 2 -30 40 0 33
3 40 20 40 18 0 20 7 20 80 0 47 4 80 10 80 6 0 10 -47 10 -120z m20 -240 c0
-22 -4 -40 -10 -40 -5 0 -10 18 -10 40 0 22 5 40 10 40 6 0 10 -18 10 -40z
m-980 -80 l0 -40 -40 0 -40 0 0 40 0 40 40 0 40 0 0 -40z m320 -80 l0 -40
-160 0 c-121 0 -160 3 -160 13 0 9 21 11 80 9 79 -3 80 -3 80 21 0 13 3 27 7
30 3 4 39 7 80 7 l73 0 0 -40z m180 -5 c0 -19 -4 -35 -10 -35 -5 0 -10 16 -10
35 0 19 5 35 10 35 6 0 10 -16 10 -35z m637 -337 c-2 -13 -4 -3 -4 22 0 25 2
35 4 23 2 -13 2 -33 0 -45z"/>
<path d="M23680 33400 l0 -40 80 0 80 0 0 40 0 40 -80 0 -80 0 0 -40z"/>
<path d="M24420 31280 c0 -79 0 -80 25 -80 25 0 25 1 25 80 0 79 0 80 -25 80
-25 0 -25 -1 -25 -80z"/>
<path d="M23360 28120 l0 -40 40 0 40 0 0 40 0 40 -40 0 -40 0 0 -40z"/>
<path d="M9800 35041 c0 -19 42 -107 101 -209 100 -174 180 -289 438 -630 126
-166 219 -296 317 -439 34 -51 78 -107 97 -125 18 -18 51 -55 73 -83 21 -27
42 -52 45 -55 4 -3 30 -34 58 -70 29 -36 69 -85 89 -109 20 -24 41 -51 46 -60
5 -9 32 -43 59 -76 64 -78 65 -80 112 -148 22 -32 55 -79 72 -105 18 -26 38
-56 45 -66 7 -11 28 -36 47 -56 18 -21 32 -41 31 -45 -1 -3 8 -15 19 -24 12
-10 21 -22 21 -27 0 -5 15 -26 34 -46 19 -20 65 -83 102 -139 244 -361 269
-405 337 -574 120 -302 117 -287 193 -830 19 -137 39 -272 45 -300 21 -104 29
-154 44 -280 9 -71 18 -137 21 -145 3 -8 9 -37 14 -65 5 -27 21 -113 35 -190
15 -77 37 -196 50 -265 78 -431 165 -678 308 -870 88 -119 907 -904 1278
-1226 131 -114 398 -355 604 -545 66 -61 144 -132 174 -158 30 -25 59 -50 66
-56 6 -5 69 -66 141 -135 157 -153 417 -397 499 -470 33 -29 121 -110 195
-180 201 -188 226 -210 241 -210 8 0 74 -59 148 -130 74 -72 138 -130 143
-130 4 0 10 0 13 0 11 0 126 -105 298 -272 49 -49 93 -88 98 -88 10 0 89 -72
264 -241 151 -147 208 -199 216 -199 6 0 27 -19 307 -287 93 -90 218 -203 277
-253 59 -49 152 -133 207 -185 56 -52 103 -93 106 -91 2 3 54 -43 115 -102 61
-59 121 -117 133 -128 12 -12 60 -54 106 -94 46 -40 151 -137 233 -215 217
-205 263 -247 330 -301 33 -26 92 -78 130 -115 39 -36 102 -95 140 -130 39
-35 106 -98 150 -140 44 -41 121 -110 170 -153 50 -43 149 -134 220 -201 72
-67 164 -151 205 -186 41 -35 80 -69 85 -75 12 -13 150 -133 190 -165 43 -35
144 -128 275 -254 127 -122 259 -244 312 -290 19 -16 98 -88 175 -160 76 -71
166 -152 198 -180 33 -27 89 -77 125 -111 36 -33 108 -99 160 -145 52 -46 151
-138 220 -205 160 -155 163 -158 305 -278 159 -135 327 -288 395 -360 30 -32
80 -78 110 -103 108 -86 177 -150 471 -434 130 -126 251 -241 271 -256 19 -16
71 -60 114 -99 74 -67 223 -195 275 -238 21 -17 79 -68 203 -176 16 -14 39
-34 50 -45 12 -11 73 -67 136 -125 63 -58 122 -112 131 -120 66 -63 164 -153
213 -195 32 -27 63 -55 70 -60 13 -13 125 -114 181 -164 22 -20 76 -67 120
-106 76 -66 310 -283 460 -427 85 -81 94 -89 270 -240 77 -67 160 -139 185
-162 25 -23 68 -61 95 -85 28 -24 100 -92 160 -150 120 -116 458 -429 600
-556 149 -134 328 -297 364 -333 19 -19 75 -68 125 -109 50 -42 145 -128 211
-191 66 -64 163 -152 217 -196 53 -45 140 -121 195 -171 54 -49 120 -108 147
-130 27 -22 54 -45 60 -50 75 -70 210 -187 241 -210 71 -53 88 -68 205 -180
64 -60 142 -134 175 -163 33 -29 85 -78 116 -108 31 -30 58 -54 61 -54 2 0 29
-24 59 -53 74 -69 303 -224 415 -280 140 -70 210 -89 339 -90 109 -1 232 16
270 36 11 6 30 13 42 14 65 10 198 90 263 159 19 20 58 54 86 75 28 20 58 45
67 54 10 9 17 14 17 11 0 -3 16 10 35 30 19 19 35 39 35 44 0 6 5 10 12 10 10
0 328 311 536 524 37 38 148 151 247 251 99 100 199 202 221 226 23 24 61 60
84 79 77 63 132 113 259 240 70 69 135 132 146 141 11 9 28 25 37 35 9 10 23
24 30 31 7 6 54 53 104 105 50 51 112 111 138 133 96 80 141 121 166 150 14
16 32 37 41 46 9 9 31 38 50 65 18 27 47 63 64 80 38 38 68 87 85 140 7 21 16
44 21 49 16 21 49 171 49 226 0 54 -35 212 -61 275 -54 131 -95 198 -173 286
-46 52 -126 132 -177 179 -84 76 -159 146 -509 470 -128 119 -123 114 -380
334 -179 154 -305 269 -589 539 -75 71 -183 169 -241 219 -58 50 -145 128
-195 172 -49 45 -139 123 -200 175 -60 52 -137 119 -170 150 -33 31 -107 99
-165 151 -58 51 -116 105 -130 119 -31 31 -154 138 -325 285 -275 235 -464
401 -545 480 -170 164 -258 245 -390 360 -74 66 -218 198 -320 296 -102 97
-250 234 -330 305 -80 70 -147 130 -150 133 -3 4 -23 21 -45 40 -22 18 -62 55
-90 80 -100 93 -412 369 -495 438 -97 80 -147 126 -755 691 -38 36 -131 124
-205 196 -119 116 -383 359 -494 457 -22 19 -99 89 -170 156 -72 67 -165 149
-206 183 -41 34 -106 90 -145 124 -38 34 -104 91 -145 126 -41 35 -77 67 -80
70 -3 3 -45 41 -95 85 -49 44 -121 110 -160 146 -38 37 -88 82 -110 100 -62
53 -130 115 -245 225 -58 56 -154 145 -215 199 -60 55 -128 115 -150 135 -22
20 -69 63 -105 95 -36 33 -85 78 -110 101 -38 35 -100 88 -194 164 -10 8 -23
20 -30 25 -6 6 -27 23 -46 39 -19 15 -66 56 -105 91 -38 34 -117 104 -175 155
-150 133 -174 154 -285 260 -379 359 -715 664 -910 825 -48 40 -355 314 -375
335 -6 6 -190 174 -260 237 -73 66 -280 244 -350 302 -164 135 -559 492 -666
602 -120 124 -370 364 -454 439 -41 36 -124 110 -185 165 -60 55 -148 133
-195 172 -47 39 -121 106 -165 149 -44 44 -103 97 -130 119 -28 22 -113 101
-190 176 -125 121 -254 241 -424 394 -31 27 -108 100 -171 161 -327 315 -445
426 -565 529 -132 115 -209 181 -299 261 -45 38 -128 110 -186 158 -108 91
-189 161 -294 256 -34 30 -86 77 -116 104 -30 26 -107 99 -170 160 -135 132
-355 327 -455 402 -170 128 -431 211 -905 289 -194 31 -296 49 -480 81 -80 14
-167 29 -195 34 -27 4 -122 24 -210 44 -88 20 -200 43 -250 51 -49 8 -148 27
-220 41 -71 14 -161 29 -200 34 -285 37 -367 59 -573 156 -63 30 -116 54 -117
54 -2 0 -30 17 -62 38 -32 21 -65 41 -73 45 -8 4 -62 39 -120 80 -58 40 -190
131 -295 201 -104 71 -212 145 -239 165 -51 37 -677 459 -1206 814 -423 283
-651 422 -905 551 -109 55 -135 64 -135 47z m6280 -3721 l0 -40 40 0 40 0 0
-40 0 -40 -40 0 -40 0 0 40 0 40 -40 0 -40 0 0 40 0 40 40 0 40 0 0 -40z
m-240 -480 l0 -40 -40 0 -40 0 0 40 0 40 40 0 40 0 0 -40z m480 -160 l0 -40
-40 0 -40 0 0 40 0 40 40 0 40 0 0 -40z m400 -160 l0 -40 40 0 40 0 0 -40 0
-40 -40 0 -40 0 0 -80 0 -80 40 0 40 0 0 -40 0 -40 -40 0 -40 0 0 -40 0 -40
-80 0 -80 0 0 -40 0 -40 40 0 40 0 0 -40 0 -40 70 0 70 0 0 40 0 40 50 0 50 0
0 -80 0 -80 -40 0 -40 0 0 -40 0 -40 -200 0 -200 0 0 40 0 40 40 0 40 0 0 40
0 40 -120 0 -120 0 0 40 0 40 120 0 120 0 0 40 0 40 -40 0 c-22 0 -40 -4 -40
-10 0 -5 -18 -10 -40 -10 -22 0 -40 5 -40 10 0 6 -18 10 -40 10 l-40 0 0 40 0
40 -40 0 -40 0 0 80 0 80 -80 0 -80 0 0 40 0 40 -40 0 -40 0 0 80 0 80 400 0
400 0 0 -40z m1065 -10 c3 -6 -1 -7 -9 -4 -18 7 -21 14 -7 14 6 0 13 -4 16
-10z m39 -6 c26 -10 18 -24 -14 -24 -26 0 -29 2 -18 15 16 17 13 16 32 9z
m414 -626 l3 -38 -80 0 -81 0 0 -40 0 -40 40 0 40 0 0 -40 0 -40 40 0 40 0 0
-80 0 -80 80 0 80 0 0 -40 0 -40 40 0 40 0 0 -40 0 -40 40 0 40 0 0 -40 0 -40
40 0 40 0 0 80 0 80 -42 0 -43 0 5 77 c5 81 5 80 50 74 6 0 10 -31 10 -70 0
-74 5 -81 58 -81 l27 0 -5 80 c-4 57 -2 80 6 80 8 0 12 -27 12 -82 -1 -135 1
-148 19 -155 26 -10 63 -50 63 -68 0 -11 11 -15 40 -15 38 0 40 2 40 30 0 20
-5 30 -15 30 -17 0 -85 63 -85 79 0 5 -12 12 -27 14 -27 4 -27 4 3 6 24 1 41
-8 73 -39 31 -30 41 -36 41 -22 0 14 2 15 10 2 8 -13 10 -12 10 3 0 9 7 17 15
17 8 0 15 -9 15 -20 0 -13 7 -20 20 -20 12 0 20 7 20 16 0 9 6 14 13 11 6 -2
11 -14 10 -26 -2 -16 3 -21 22 -21 15 0 26 -6 26 -15 1 -8 2 -19 3 -24 0 -4
15 -23 33 -41 18 -18 30 -37 27 -42 -3 -4 2 -11 10 -14 11 -4 16 -19 16 -45 0
-39 0 -39 43 -41 l42 -1 -42 -4 c-42 -4 -43 -5 -43 -39 0 -33 -1 -34 -40 -34
-40 0 -40 0 -40 39 l0 39 -95 4 c-53 2 -111 2 -130 0 l-35 -4 0 -78 0 -77 50
-7 50 -7 0 -69 c0 -39 4 -71 10 -71 20 -3 132 -7 220 -8 l90 -1 0 -80 0 -80
90 -1 c50 -1 102 -2 118 -3 l27 -1 3 83 3 82 -41 0 -40 0 0 80 c0 44 3 80 6
80 3 0 23 -18 44 -40 31 -32 46 -40 74 -40 25 0 36 -4 36 -15 0 -11 12 -15 43
-17 l42 -1 -45 -7 -45 -7 45 -1 45 -2 -3 -55 -4 -55 36 0 c35 0 36 1 38 43 l1
42 7 -45 c5 -31 8 -37 10 -20 l3 25 4 -24 c4 -19 7 -21 14 -10 6 10 9 10 9 2
0 -7 9 -13 20 -13 17 0 20 -7 20 -40 l0 -40 40 0 c33 0 40 -4 40 -19 0 -10 7
-21 15 -25 8 -3 12 -12 9 -21 -5 -11 1 -15 21 -15 19 0 28 -6 32 -21 3 -11 11
-18 19 -15 18 7 29 -13 15 -27 -8 -8 -11 -7 -11 3 0 11 -3 11 -12 2 -16 -16 5
-32 40 -32 19 0 22 -6 23 -37 0 -21 3 -31 6 -23 2 8 7 21 9 29 4 11 7 12 17 2
7 -7 12 -17 12 -24 0 -6 11 -14 25 -18 20 -6 17 -7 -17 -8 -31 -1 -43 -5 -43
-16 0 -17 31 -20 46 -5 5 5 19 7 31 4 19 -5 20 -9 10 -26 -9 -16 -9 -22 1 -25
8 -3 12 -29 12 -79 0 -42 4 -75 10 -75 6 -1 15 -3 20 -4 6 -1 15 -3 20 -4 6 0
10 -35 10 -81 l0 -80 40 0 40 0 0 -80 0 -80 -40 0 -40 0 0 -40 0 -40 -80 0
-80 0 0 80 0 80 -160 0 -160 0 0 40 0 40 -80 0 -80 0 0 75 c0 59 3 75 15 76 8
1 20 3 25 4 6 1 21 3 35 4 24 1 25 3 25 75 0 74 0 75 28 78 25 3 27 7 30 56
l3 52 -80 0 -81 0 0 30 0 30 -80 0 -80 0 0 -160 0 -160 -40 0 -40 0 0 120 0
120 -120 0 -120 0 0 40 0 40 -80 0 -80 0 0 40 0 40 40 0 40 0 0 40 0 40 -80 0
-80 0 0 -40 0 -40 -40 0 -40 0 0 80 0 80 -80 0 -80 0 0 40 0 40 -40 0 -40 0 0
-40 0 -40 -160 0 -160 0 0 -40 0 -40 -40 0 -40 0 0 40 0 40 -80 0 -80 0 0 80
0 80 -40 0 -40 0 0 40 0 40 -80 0 -80 0 0 40 0 40 40 0 40 0 0 40 0 40 -40 0
-40 0 0 80 0 80 40 0 40 0 0 -40 0 -40 40 0 40 0 0 40 0 40 40 0 40 0 0 80 0
80 40 0 40 0 0 40 0 40 -80 0 -80 0 0 -40 0 -40 -40 0 -40 0 0 80 0 80 -40 0
-40 0 0 40 0 40 -40 0 -40 0 0 80 0 80 40 0 40 0 0 40 0 40 278 -2 277 -3 3
-37z m-1678 -238 l0 -40 -40 0 -40 0 0 40 0 40 40 0 40 0 0 -40z m2338 -179
c-15 -5 -21 7 -13 26 7 17 8 17 15 -2 4 -11 3 -22 -2 -24z m-18 -421 c0 -40
-4 -70 -10 -70 -6 0 -10 30 -10 70 0 40 4 70 10 70 6 0 10 -30 10 -70z m385
-82 c3 -3 -8 -4 -25 -3 -17 1 -33 5 -36 8 -3 3 8 5 25 3 17 -1 33 -5 36 -8z
m404 -622 c-4 -4 -80 -15 -111 -15 -16 -1 -18 -11 -18 -76 0 -43 -4 -75 -10
-75 -11 0 -14 152 -3 163 3 4 38 7 76 7 39 0 68 -2 66 -4z m2411 -2056 l0
-120 40 0 40 0 0 40 0 40 40 0 40 0 0 -80 0 -80 80 0 80 0 0 -160 0 -160 -120
0 -120 0 0 40 0 40 -40 0 -40 0 0 -40 0 -40 -40 0 -40 0 0 40 0 40 -40 0 -40
0 0 40 0 40 -40 0 -40 0 0 40 0 40 -80 0 -80 0 0 -40 0 -40 -40 0 -40 0 0 40
0 40 40 0 40 0 0 40 0 40 40 0 40 0 0 40 0 40 40 0 40 0 0 40 0 40 40 0 40 0
0 80 0 80 80 0 80 0 0 -120z m-400 -560 l0 -40 -40 0 -40 0 0 40 0 40 40 0 40
0 0 -40z m1615 -430 c3 -5 1 -10 -4 -10 -6 0 -11 5 -11 10 0 6 2 10 4 10 3 0
8 -4 11 -10z m271 -287 c22 -29 16 -43 -16 -43 -27 0 -30 3 -30 30 0 35 24 41
46 13z m449 -113 c3 -5 1 -10 -4 -10 -6 0 -11 5 -11 10 0 6 2 10 4 10 3 0 8
-4 11 -10z m-55 -214 c0 -13 6 -27 13 -29 6 -3 -7 -6 -30 -6 -41 -1 -43 0 -43
29 0 27 3 30 30 30 25 0 30 -4 30 -24z m37 -28 c-3 -8 -6 -5 -6 6 -1 11 2 17
5 13 3 -3 4 -12 1 -19z m-317 -88 l0 -80 160 0 160 0 0 40 c0 38 2 40 30 40
28 0 30 -2 30 -40 0 -38 -2 -40 -30 -40 l-30 0 0 -240 0 -240 -80 0 -80 0 0
80 0 80 -120 0 -120 0 0 40 0 40 -40 0 -40 0 0 40 0 40 -40 0 -40 0 0 40 0 40
40 0 40 0 0 40 0 40 -40 0 -40 0 0 80 0 80 120 0 120 0 0 -80z m512 -155 c6
-14 15 -25 20 -25 4 0 8 -13 8 -30 0 -27 -3 -30 -30 -30 -30 0 -30 1 -30 55 0
59 13 71 32 30z m286 -357 c2 -27 7 -49 13 -49 5 -1 14 -3 19 -4 6 -1 15 -3
20 -4 6 -1 10 -60 10 -156 l0 -155 50 0 50 0 0 -80 0 -80 80 0 79 0 3 78 c3
80 2 79 48 73 6 0 10 -33 10 -75 l0 -73 50 -7 c45 -6 50 -9 50 -31 0 -16 6
-25 15 -25 17 0 85 -64 85 -80 0 -5 5 -11 10 -11 6 -1 19 -3 30 -4 11 -1 74
-3 140 -4 l120 -1 0 -80 0 -80 -320 0 -320 0 0 40 0 40 -40 0 -40 0 0 -40 0
-40 -40 0 -40 0 0 40 0 40 -120 0 -120 0 0 40 0 40 -160 0 -160 0 0 -40 0 -40
40 0 40 0 0 -80 0 -80 -40 0 -40 0 0 80 0 80 -40 0 -40 0 0 40 0 40 -80 0 -80
0 0 40 0 40 40 0 40 0 0 40 0 40 120 0 120 0 0 80 0 80 40 0 40 0 0 40 0 40
40 0 40 0 0 -40 0 -40 -40 0 -40 0 0 -80 0 -80 160 0 160 0 0 200 0 200 -120
0 -120 0 0 40 0 40 40 0 40 0 0 40 0 40 40 0 c22 0 40 5 40 11 0 6 16 9 38 7
37 -3 37 -3 40 -50z m242 -128 l0 -80 40 0 40 0 0 -40 0 -40 80 0 c57 0 80 -4
80 -12 0 -10 -21 -12 -79 -10 l-80 3 -3 -28 c-3 -28 -3 -28 -78 -29 -41 0 -81
2 -87 4 -10 3 -13 44 -13 158 l0 154 50 0 50 0 0 -80z m320 -321 c0 -69 2 -79
18 -79 10 0 24 -9 32 -19 7 -11 17 -18 22 -15 4 3 8 -4 8 -16 0 -11 -7 -23
-15 -26 -16 -7 -65 38 -65 59 0 10 -17 17 -50 21 l-50 7 0 73 c0 40 2 75 4 77
3 2 25 3 50 1 l46 -4 0 -79z m880 -954 c0 -42 4 -76 10 -76 6 -1 15 -3 20 -4
6 -1 24 -3 40 -4 l30 -1 0 -80 0 -80 110 0 110 0 0 -80 0 -80 80 0 80 0 0 80
0 80 30 0 30 0 0 -80 0 -80 -30 0 -30 0 0 -80 0 -81 158 3 157 3 3 28 c3 27 4
27 83 27 l79 0 0 -30 c0 -28 2 -30 40 -30 23 0 40 5 40 11 0 8 4 8 13 1 6 -5
23 -12 37 -14 24 -3 25 -6 28 -80 l3 -78 39 0 c40 0 40 0 40 -40 0 -40 0 -40
40 -40 l39 0 3 -117 3 -118 38 -3 c36 -3 37 -4 37 -43 0 -39 0 -39 40 -39 l40
0 0 -40 0 -40 80 0 80 0 0 -40 0 -40 80 0 80 0 0 -40 0 -40 80 0 80 0 0 -40
c0 -36 2 -40 26 -40 32 0 54 -21 54 -54 0 -21 5 -25 38 -28 l37 -3 3 -77 3
-78 39 0 c40 0 40 0 40 -40 l0 -40 80 0 80 0 0 -40 0 -40 40 0 40 0 0 -40 c0
-38 2 -40 30 -40 28 0 30 -2 30 -39 l0 -39 60 -7 60 -7 0 -73 0 -73 64 -7 64
-7 7 -154 7 -154 79 0 79 0 0 30 0 30 80 0 80 0 0 -30 c0 -27 3 -30 30 -30
l30 0 0 -80 c0 -73 2 -80 20 -80 17 0 20 7 20 40 0 33 3 40 20 40 17 0 20 7
20 42 0 30 3 39 11 31 5 -5 10 -40 10 -76 0 -41 5 -67 12 -69 7 -3 50 -6 96
-7 85 -3 111 -13 111 -45 0 -9 -8 -16 -20 -16 -11 0 -20 5 -20 10 0 6 -4 10
-10 10 -14 0 -12 -46 3 -72 21 -39 40 -47 110 -48 65 0 67 -1 67 -26 0 -39 22
-54 79 -54 28 0 51 -4 51 -10 0 -5 -18 -10 -40 -10 -39 0 -40 -1 -40 -33 0
-31 3 -34 28 -32 49 3 52 -2 52 -81 l0 -73 78 -3 77 -3 3 -77 3 -78 79 0 80 0
0 -81 0 -80 68 2 c37 1 91 1 120 0 l52 -1 0 -80 0 -80 80 0 80 0 0 -40 c0 -22
5 -40 10 -40 6 0 10 -15 10 -34 0 -39 5 -42 80 -45 66 -3 81 -11 21 -11 -38 0
-42 -2 -39 -22 2 -19 10 -24 41 -26 20 -2 37 -7 37 -13 0 -5 18 -9 40 -9 l40
0 0 -40 0 -40 40 0 40 0 0 -40 0 -40 40 0 40 0 0 -40 c0 -38 2 -40 30 -40 l30
0 0 -79 c0 -79 0 -80 -27 -83 -28 -3 -28 -4 -28 -78 l0 -75 75 0 75 0 5 75 5
75 68 -1 c37 -1 71 -5 75 -8 4 -4 9 -75 10 -157 l4 -149 119 0 119 0 0 -40 0
-40 40 0 40 0 0 -40 0 -40 80 0 80 0 0 -120 0 -120 -120 0 -120 0 0 -40 0 -40
120 0 120 0 0 -82 0 -83 -80 3 -80 4 0 -75 c0 -51 4 -77 13 -80 6 -3 -30 -6
-80 -6 l-93 -1 0 -80 0 -80 -40 0 -40 0 0 -80 0 -80 -40 0 -40 0 0 -80 0 -80
40 0 40 0 0 -80 0 -80 80 0 80 0 0 80 0 80 40 0 40 0 0 40 0 40 80 0 80 0 0
-80 0 -80 40 0 40 0 0 -40 0 -40 -40 0 -40 0 0 -40 0 -40 80 0 80 0 0 40 0 40
80 0 80 0 0 -40 0 -40 40 0 c51 0 53 -18 3 -22 -31 -2 -39 -7 -41 -25 -2 -13
1 -23 7 -23 6 0 11 -7 11 -15 0 -8 -4 -15 -10 -15 -5 0 -10 -13 -10 -30 0 -29
2 -30 44 -30 39 0 44 -2 39 -20 -3 -11 -11 -20 -19 -20 -25 0 -65 -24 -60 -36
6 -15 -39 -58 -53 -50 -5 4 -15 -3 -21 -14 -6 -11 -17 -20 -26 -20 -8 0 -14
-6 -12 -14 3 -14 0 -16 -22 -16 -18 0 -10 29 10 35 11 3 20 10 20 15 0 4 -9 6
-20 3 -11 -3 -20 -9 -20 -14 0 -18 -18 -8 -25 14 -4 13 -8 17 -12 10 -2 -7
-11 -13 -19 -13 -17 0 -64 -44 -64 -60 0 -17 -26 -40 -44 -40 -12 0 -16 -10
-16 -40 0 -33 3 -40 20 -40 12 0 20 -7 20 -17 0 -15 -2 -16 -10 -3 -5 8 -10
11 -10 6 0 -6 -5 -5 -12 2 -7 7 -29 12 -50 12 -38 0 -38 0 -38 -40 0 -37 2
-40 28 -41 l27 0 -25 -10 c-17 -7 -26 -7 -28 0 -2 6 -21 11 -43 11 -35 0 -39
-3 -39 -25 0 -22 -4 -25 -40 -25 l-40 0 0 -55 0 -55 -41 0 -42 0 5 -52 c3 -29
3 -47 1 -40 -3 6 -18 12 -34 12 -26 0 -29 -3 -29 -32 0 -66 -7 -74 -56 -71
-33 2 -44 -1 -44 -12 0 -11 -11 -15 -40 -15 l-40 0 0 -54 c0 -34 5 -56 13 -60
6 -3 -1 -3 -17 1 -25 5 -28 4 -21 -16 10 -34 -3 -61 -31 -61 -26 0 -31 -9 -13
-27 10 -10 9 -20 -4 -53 -1 -2 -13 -15 -26 -28 -12 -13 -21 -31 -19 -40 4 -16
-8 -17 -139 -14 l-143 4 0 -41 0 -41 -120 0 -120 0 0 -40 0 -40 -40 0 -40 0 0
-120 0 -120 -36 0 c-28 0 -43 -8 -74 -40 -21 -22 -41 -40 -44 -40 -3 0 -6 18
-6 40 l0 40 -40 0 -40 0 0 40 0 40 -40 0 -40 0 0 -40 0 -40 -120 0 -120 0 0
40 0 40 40 0 40 0 0 80 0 80 120 0 120 0 0 120 0 120 40 0 40 0 0 120 0 120
40 0 40 0 0 40 0 40 40 0 40 0 0 160 0 160 40 0 40 0 0 -40 0 -40 40 0 40 0 0
80 0 80 -40 0 -40 0 0 40 0 40 40 0 40 0 0 40 0 40 80 0 80 0 0 40 0 40 -120
0 -120 0 0 80 0 80 80 0 80 0 0 -40 0 -40 40 0 40 0 0 40 0 40 80 0 80 0 0 40
0 40 -40 0 -40 0 0 80 0 80 -40 0 -40 0 0 80 0 80 40 0 40 0 0 40 0 40 -40 0
-40 0 0 80 0 80 -80 0 -80 0 0 80 0 80 -200 0 -200 0 0 40 0 40 -40 0 -40 0 0
80 0 80 -80 0 -80 0 0 160 0 160 -80 0 -80 0 0 40 0 40 -80 0 -80 0 0 80 0 80
-80 0 -80 0 0 40 0 40 -80 0 -80 0 0 40 0 40 -40 0 -40 0 0 40 0 40 -40 0 -40
0 0 80 0 80 -80 0 -80 0 0 40 0 40 160 0 160 0 0 40 0 40 -40 0 -40 0 0 80 0
80 -40 0 -40 0 0 40 0 40 -80 0 -80 0 0 -40 0 -40 -120 0 -120 0 0 40 0 40
-240 0 -240 0 0 40 0 40 120 0 120 0 0 80 0 80 -80 0 -80 0 0 40 0 40 -80 0
-80 0 0 40 0 40 80 0 80 0 0 40 0 40 -40 0 -40 0 0 40 0 40 -40 0 -40 0 0 40
0 40 -80 0 -80 0 0 40 0 40 120 0 120 0 0 40 0 40 -40 0 -40 0 0 40 0 40 -160
0 -160 0 0 40 0 40 80 0 80 0 0 40 0 40 80 0 80 0 0 80 0 80 -40 0 -40 0 0 40
0 40 -80 0 -80 0 0 -40 0 -40 -40 0 -40 0 0 40 0 40 40 0 40 0 0 80 0 80 -40
0 -40 0 0 80 0 80 -80 0 -80 0 0 -40 0 -40 -40 0 -40 0 0 40 0 40 -120 0 -120
0 0 40 0 40 -40 0 -40 0 0 80 0 80 -80 0 -80 0 0 40 0 40 40 0 40 0 0 40 0 40
40 0 40 0 0 40 0 40 -80 0 -80 0 0 -40 0 -40 -40 0 -40 0 0 80 0 80 -40 0 -40
0 0 40 0 40 -80 0 -80 0 0 40 0 40 40 0 40 0 0 200 0 200 -160 0 -160 0 0 80
0 80 -160 0 -160 0 0 40 0 40 40 0 40 0 0 40 0 40 -200 0 -200 0 0 80 0 80
-80 0 -80 0 0 80 0 80 80 0 80 0 0 200 0 200 40 0 40 0 0 40 0 40 40 0 40 0 0
-75z m478 -162 c-3 -15 -16 -19 -72 -21 -38 -2 -73 1 -79 7 -20 20 6 31 79 31
66 0 75 -2 72 -17z m25 -71 c-18 -5 -27 3 -18 17 4 7 10 7 20 -2 11 -10 11
-13 -2 -15z m137 -77 c0 -50 -4 -85 -10 -85 -6 0 -10 32 -10 75 0 43 -4 75
-10 75 -5 0 -10 5 -10 10 0 6 9 10 20 10 18 0 20 -7 20 -85z m660 -405 c0 -5
-4 -10 -10 -10 -5 0 -10 5 -10 10 0 6 5 10 10 10 6 0 10 -4 10 -10z m1420
-1410 l0 -40 40 0 40 0 0 -40 0 -40 40 0 40 0 0 -40 0 -40 80 0 c47 0 80 -4
80 -10 0 -15 -143 -13 -158 2 -7 7 -41 12 -80 13 l-67 0 -3 70 c-3 76 -13 95
-48 95 -21 0 -24 5 -24 35 0 32 2 35 30 35 28 0 30 -2 30 -40z m-5220 -480 c0
-33 -3 -40 -20 -40 -18 0 -20 -7 -20 -75 0 -43 -4 -75 -10 -75 -5 0 -10 16
-10 35 0 34 -1 35 -40 35 l-40 0 0 40 0 40 40 0 40 0 0 40 c0 38 2 40 30 40
28 0 30 -2 30 -40z m100 -90 l0 -130 -40 0 c-22 0 -40 5 -40 10 0 6 5 10 10
10 6 0 10 33 10 80 0 73 2 80 20 80 17 0 20 7 20 40 0 22 5 40 10 40 6 0 10
-50 10 -130z m-640 40 c0 -5 -2 -10 -4 -10 -3 0 -8 5 -11 10 -3 6 -1 10 4 10
6 0 11 -4 11 -10z m6487 -66 c11 -10 13 -18 6 -22 -6 -4 -13 -16 -15 -27 -4
-18 -6 -17 -16 6 -6 15 -17 29 -24 32 -8 4 -7 6 5 6 9 1 17 6 17 11 0 14 9 12
27 -6z m88 -14 c-3 -5 -1 -10 4 -10 6 0 11 -4 11 -10 0 -5 -7 -10 -15 -10 -8
0 -15 -7 -15 -15 0 -16 -17 -19 -44 -9 -24 9 -20 44 4 44 11 0 20 -4 20 -10 0
-5 5 -10 10 -10 6 0 10 9 10 20 0 11 5 20 11 20 5 0 7 -4 4 -10z m-1535 -670
l0 -40 -40 0 -40 0 0 40 0 40 40 0 40 0 0 -40z m-3500 -400 c0 -22 -4 -40 -10
-40 -5 0 -10 18 -10 40 0 22 5 40 10 40 6 0 10 -18 10 -40z m6458 -355 c0 -41
-5 -75 -10 -75 -4 0 -8 34 -8 75 0 43 4 75 10 75 6 0 9 -31 8 -75z m152 -75
c8 -5 11 -10 5 -10 -5 0 -17 5 -25 10 -8 5 -10 10 -5 10 6 0 17 -5 25 -10z
m-5590 -130 l0 -40 40 0 40 0 0 -40 0 -40 40 0 40 0 0 -40 0 -40 40 0 40 0 0
40 0 40 80 0 80 0 0 -40 0 -40 40 0 40 0 0 -40 0 -40 -40 0 -40 0 0 -80 0 -80
-80 0 -80 0 0 -40 0 -40 -40 0 -40 0 0 40 0 40 -40 0 -40 0 0 -80 0 -80 -79 0
c-53 0 -81 -4 -83 -12 -3 -9 -6 -9 -12 0 -4 7 -2 12 3 12 7 0 11 30 11 80 l0
80 40 0 40 0 0 40 0 40 -40 0 -40 0 0 40 0 40 -40 0 -40 0 0 40 0 40 -40 0
-40 0 0 -40 0 -40 -55 0 c-46 0 -60 4 -80 25 -38 37 -33 55 15 55 l40 0 0 40
0 40 80 0 80 0 0 80 0 80 80 0 80 0 0 -40z m6503 -1834 c3 -8 -1 -20 -9 -26
-12 -10 -14 -8 -14 14 0 28 14 35 23 12z m-1703 -286 l0 -80 -80 0 -80 0 0
-80 0 -80 40 0 40 0 0 -40 0 -40 -80 0 -80 0 0 40 0 40 -40 0 -40 0 0 40 0 40
-80 0 -80 0 0 40 0 40 40 0 40 0 0 80 0 80 200 0 200 0 0 -80z m1390 -35 c-7
-8 -17 -15 -22 -15 -6 0 -5 7 2 15 7 8 17 15 22 15 6 0 5 -7 -2 -15z m-160
-173 c0 -13 -12 -22 -22 -16 -10 6 -1 24 13 24 5 0 9 -4 9 -8z m-410 -382 c0
-5 -4 -10 -10 -10 -5 0 -10 5 -10 10 0 6 5 10 10 10 6 0 10 -4 10 -10z m-50
-100 c0 -14 -16 -21 -34 -14 -24 9 -19 19 9 22 14 1 25 -2 25 -8z m-1090 -230
l0 -40 -160 0 -160 0 0 40 0 40 160 0 160 0 0 -40z m700 -85 c0 -8 -4 -15 -10
-15 -5 0 -10 7 -10 15 0 8 5 15 10 15 6 0 10 -7 10 -15z m40 1 c0 -3 -4 -8
-10 -11 -5 -3 -10 -1 -10 4 0 6 5 11 10 11 6 0 10 -2 10 -4z m-180 -75 c0 -39
1 -40 37 -43 l37 -3 -37 -25 c-20 -14 -37 -29 -37 -34 0 -4 -11 -17 -25 -28
-14 -11 -23 -23 -21 -27 3 -4 -4 -8 -15 -8 -18 -2 -19 6 -19 103 l0 104 40 0
c40 0 40 0 40 -39z m33 -141 c-3 -11 -7 -20 -8 -20 -1 0 -5 9 -8 20 -3 12 0
20 8 20 8 0 11 -8 8 -20z m-169 -75 c15 15 19 16 27 4 5 -8 9 -17 9 -20 0 -11
-27 -18 -36 -9 -13 12 -57 -8 -51 -23 3 -7 -3 -13 -14 -13 -18 0 -18 1 0 21
10 11 21 29 26 40 7 19 7 19 14 1 7 -18 8 -18 25 -1z m89 8 c-7 -2 -19 -2 -25
0 -7 3 -2 5 12 5 14 0 19 -2 13 -5z m-473 -159 c0 -3 -7 -12 -15 -20 -13 -14
-15 -13 -15 5 0 12 6 21 15 21 8 0 15 -3 15 -6z m200 -8 c0 -2 -9 -6 -20 -9
-11 -3 -18 -1 -14 4 5 9 34 13 34 5z m-154 -60 c9 -9 10 -17 4 -21 -5 -3 -10
-1 -10 4 0 6 -9 11 -20 11 -11 0 -20 5 -20 10 0 15 29 12 46 -4z m-116 -95 c0
-5 -11 -18 -25 -29 -14 -11 -25 -25 -25 -31 0 -6 -13 -11 -29 -11 -29 0 -41
-14 -41 -51 0 -11 -8 -23 -17 -26 -20 -8 -72 -64 -73 -78 0 -5 5 -3 10 5 8 13
10 12 10 -2 0 -15 -10 -18 -52 -20 -67 -2 -78 -1 -105 7 -19 6 -23 4 -23 -14
0 -14 -5 -19 -15 -15 -8 4 -15 10 -15 16 0 5 4 7 9 4 5 -4 7 3 4 14 -6 22 -19
27 -25 9 -5 -14 -168 -21 -280 -13 -83 6 -105 20 -38 22 22 1 40 -3 40 -8 0
-6 18 -10 40 -10 l40 0 0 40 c0 22 5 40 11 40 5 0 7 -4 4 -10 -4 -6 28 -10 90
-10 67 0 94 3 89 11 -3 6 -14 9 -23 6 -13 -3 -15 3 -12 40 l3 43 119 0 119 0
0 40 0 40 105 0 c58 0 105 -4 105 -9z m-113 -176 c0 -8 -4 -12 -9 -9 -4 3 -8
9 -8 15 0 5 4 9 8 9 5 0 9 -7 9 -15z"/>
<path d="M16000 30440 l0 -40 40 0 40 0 0 40 0 40 -40 0 -40 0 0 -40z"/>
<path d="M16160 30440 l0 -40 40 0 40 0 0 -40 0 -40 40 0 40 0 0 80 0 80 -80
0 -80 0 0 -40z"/>
<path d="M16560 30440 l0 -40 80 0 80 0 0 40 0 40 -80 0 -80 0 0 -40z"/>
<path d="M17840 29160 l0 -40 40 0 40 0 0 40 0 40 -40 0 -40 0 0 -40z"/>
<path d="M18560 29160 l0 -40 -80 0 -80 0 0 -40 0 -40 -40 0 -40 0 0 -40 0
-40 40 0 40 0 0 40 0 40 80 0 80 0 0 -40 0 -40 40 0 40 0 0 40 0 40 -40 0 -40
0 0 40 0 40 40 0 40 0 0 40 0 40 -40 0 -40 0 0 -40z"/>
<path d="M19540 28634 c59 -8 140 -8 140 -1 0 4 -37 6 -82 6 -46 -1 -72 -3
-58 -5z"/>
<path d="M19680 28560 c0 -18 7 -20 80 -20 73 0 80 2 80 20 0 18 -7 20 -80 20
-73 0 -80 -2 -80 -20z"/>
<path d="M19840 28501 c0 -15 6 -21 21 -21 14 0 19 5 17 17 -5 26 -38 29 -38
4z"/>
<path d="M24080 23480 l0 -40 40 0 40 0 0 40 0 40 -40 0 -40 0 0 -40z"/>
<path d="M24480 23440 l0 -80 30 0 30 0 0 80 0 80 -30 0 -30 0 0 -80z"/>
<path d="M26780 21680 c0 -73 2 -80 20 -80 18 0 20 -7 20 -75 0 -42 4 -76 10
-76 45 -6 45 -7 50 74 l5 77 -32 0 c-32 0 -33 2 -33 40 0 33 3 40 20 40 16 0
20 7 21 38 l2 37 7 -40 7 -40 2 43 1 42 -50 0 -50 0 0 -80z"/>
<path d="M27200 20600 l0 -40 40 0 40 0 0 40 0 40 -40 0 -40 0 0 -40z"/>
<path d="M28160 19720 l0 -40 40 0 40 0 0 40 0 40 -40 0 -40 0 0 -40z"/>
<path d="M29440 19440 l0 -80 40 0 40 0 0 -40 0 -40 120 0 120 0 0 40 0 40
-40 0 -40 0 0 40 0 40 -40 0 -40 0 0 40 0 40 -80 0 -80 0 0 -80z"/>
<path d="M28640 18920 l0 -40 40 0 40 0 0 40 0 40 -40 0 -40 0 0 -40z"/>
<path d="M31200 17560 l0 -40 40 0 40 0 0 40 0 40 -40 0 -40 0 0 -40z"/>
<path d="M30000 17400 l0 -40 40 0 40 0 0 40 0 40 -40 0 -40 0 0 -40z"/>
<path d="M30800 16680 l0 -40 80 0 80 0 0 -40 0 -40 40 0 40 0 0 80 0 80 -120
0 -120 0 0 -40z"/>
<path d="M30800 15339 c0 -11 5 -17 10 -14 6 3 10 13 10 21 0 8 -4 14 -10 14
-5 0 -10 -9 -10 -21z"/>
<path d="M29610 14389 c0 -5 9 -9 20 -9 11 0 20 4 20 8 0 4 -9 8 -20 9 -11 1
-20 -2 -20 -8z"/>
<path d="M16757 24149 c-53 -55 -167 -185 -167 -192 0 -3 -22 -27 -49 -53 -27
-27 -47 -51 -43 -54 4 -3 -6 -18 -22 -35 -29 -30 -29 -30 -13 -3 10 15 17 30
17 34 0 11 -42 -45 -44 -59 -1 -7 -30 -39 -65 -71 -35 -32 -71 -65 -81 -74
-107 -102 -276 -259 -319 -298 -30 -27 -89 -83 -131 -124 -175 -172 -342 -320
-359 -320 -6 0 -11 -6 -11 -13 0 -12 -92 -109 -150 -157 -14 -12 -42 -37 -63
-56 -20 -19 -42 -32 -47 -29 -6 4 -13 -2 -17 -12 -7 -21 -92 -103 -107 -103
-5 0 -26 -15 -45 -34 -36 -34 -81 -74 -196 -171 -69 -58 -68 -58 -164 -161
-139 -149 -210 -222 -214 -218 -2 2 -43 -36 -93 -83 -49 -48 -109 -105 -134
-127 -25 -22 -44 -43 -43 -48 2 -4 -2 -8 -9 -8 -6 0 -18 -7 -27 -15 -75 -71
-131 -127 -131 -131 0 -9 -300 -297 -388 -373 -141 -120 -442 -416 -442 -433
0 -6 -2 -9 -5 -7 -9 10 -188 -161 -372 -354 -56 -59 -107 -107 -112 -107 -5 0
-11 -3 -13 -7 -1 -5 -25 -25 -51 -47 -27 -21 -78 -67 -114 -102 -37 -35 -70
-64 -75 -64 -5 0 -6 -4 -3 -10 3 -5 2 -10 -3 -10 -14 0 -102 -85 -102 -98 0
-7 -11 -14 -25 -18 -14 -3 -25 -12 -25 -20 0 -8 -5 -14 -11 -14 -5 0 -7 -4 -4
-10 3 -5 0 -7 -9 -4 -9 3 -17 -2 -21 -15 -3 -12 -12 -21 -20 -21 -7 0 -15 -9
-18 -20 -3 -11 -12 -20 -20 -20 -8 0 -17 -9 -20 -20 -3 -11 -12 -20 -20 -20
-9 0 -19 -9 -22 -20 -3 -11 -10 -20 -14 -20 -13 0 -151 -138 -151 -151 0 -7
-3 -10 -6 -7 -3 3 -34 -22 -70 -56 -35 -35 -64 -61 -64 -60 0 2 -20 -16 -43
-39 -24 -23 -77 -71 -118 -107 -40 -36 -101 -92 -136 -125 -57 -56 -196 -185
-264 -246 -16 -14 -29 -29 -29 -33 0 -15 -54 -65 -63 -59 -6 3 -7 2 -4 -3 3
-6 -44 -61 -104 -124 -60 -63 -109 -118 -109 -122 0 -5 -6 -8 -13 -8 -7 0 -18
-9 -25 -20 -7 -12 -17 -18 -22 -15 -6 3 -10 2 -10 -4 0 -5 -9 -13 -21 -16 -11
-4 -18 -9 -16 -12 7 -7 -30 -43 -44 -43 -7 0 -26 -13 -43 -29 -136 -125 -301
-281 -434 -409 -30 -28 -84 -78 -120 -113 -204 -190 -623 -614 -670 -679 -30
-41 -72 -97 -92 -125 -55 -73 -115 -207 -141 -315 -17 -72 -23 -126 -23 -225
-1 -151 15 -247 53 -326 37 -74 251 -355 343 -449 143 -146 371 -362 514 -487
92 -80 222 -201 349 -323 82 -80 192 -186 243 -235 52 -50 137 -134 190 -189
53 -54 174 -174 267 -266 403 -397 491 -458 718 -505 141 -29 197 -28 388 4
151 25 439 149 536 230 74 62 83 69 83 65 0 -3 11 5 24 18 13 13 34 32 47 43
13 11 64 53 114 95 49 41 101 84 114 95 39 31 84 74 256 243 88 86 214 204
279 262 66 58 144 128 175 155 30 28 66 60 80 73 61 53 131 125 131 133 0 5 3
9 8 9 4 0 31 21 60 48 28 26 73 65 100 87 66 56 243 221 450 420 182 175 204
195 313 291 13 12 51 52 84 90 67 76 178 189 216 219 32 26 206 181 240 214
15 14 36 33 46 41 22 17 165 146 288 260 44 41 109 101 145 133 115 103 319
297 505 480 100 98 206 199 236 225 30 26 97 90 149 142 52 53 160 156 240
230 189 176 315 295 420 395 47 45 112 106 145 135 75 66 191 178 272 263 34
36 64 63 66 61 2 -2 92 82 199 188 107 106 225 220 263 253 38 33 94 84 125
113 30 30 80 75 110 100 30 26 78 67 105 93 54 49 120 108 174 155 100 86 464
436 742 714 146 146 291 287 322 313 83 70 81 75 -65 215 -67 64 -203 196
-302 293 -100 97 -206 198 -236 224 -30 26 -109 100 -176 164 -66 64 -167 156
-225 206 -57 49 -142 126 -189 171 -134 128 -186 176 -651 605 -63 58 -161
148 -219 200 -58 51 -119 108 -136 124 -17 17 -89 86 -160 155 -71 69 -196
188 -278 265 -81 77 -174 165 -205 195 -57 56 -209 195 -291 266 -25 21 -88
77 -140 124 -156 140 -133 130 -183 79z m228 -359 c3 -6 -1 -7 -9 -4 -18 7
-21 14 -7 14 6 0 13 -4 16 -10z m-13 -28 c-8 -2 -12 -39 -12 -121 l0 -118 118
-6 c64 -3 136 -4 160 -3 40 3 42 2 42 -26 0 -26 3 -28 39 -28 23 0 41 -5 44
-12 3 -10 11 -10 35 -1 18 6 32 10 32 8 0 -2 3 -10 6 -19 5 -14 -5 -16 -75
-16 l-81 0 0 -29 0 -29 88 -4 c63 -3 93 0 109 10 22 13 63 9 49 -5 -8 -8 64
-84 75 -78 4 3 5 -4 2 -15 -6 -22 39 -65 67 -65 9 0 26 -10 39 -22 19 -18 21
-25 11 -42 -9 -17 -15 -19 -30 -11 -10 5 -35 10 -54 10 -31 0 -36 -3 -35 -22
0 -13 3 -17 6 -10 8 19 41 14 48 -8 3 -11 11 -20 17 -20 6 0 8 -9 5 -20 -4
-17 0 -20 33 -20 28 0 47 -7 66 -25 15 -14 39 -31 53 -38 14 -7 26 -18 26 -26
0 -20 49 -71 56 -59 3 5 9 3 12 -6 4 -10 19 -16 42 -16 19 0 35 -4 35 -10 0
-14 49 -60 65 -60 11 0 15 -12 15 -41 l0 -42 41 6 c36 5 45 2 77 -29 21 -19
37 -45 38 -57 2 -64 4 -68 23 -62 12 3 21 0 24 -10 4 -8 13 -12 22 -9 11 5 15
-1 15 -25 0 -29 3 -31 35 -31 21 0 35 -5 35 -12 0 -7 6 -25 14 -40 11 -20 11
-28 3 -32 -7 -3 -2 -3 11 0 12 3 22 1 22 -5 0 -6 9 -11 20 -11 14 0 20 -7 20
-24 0 -21 5 -24 55 -28 41 -4 60 -10 75 -28 11 -13 20 -27 20 -33 0 -5 -9 1
-19 14 -11 14 -23 20 -28 15 -4 -5 -2 -11 5 -13 17 -6 15 -31 -3 -50 -20 -20
-14 -37 13 -41 15 -2 22 2 22 13 0 10 7 15 18 13 12 -2 18 -14 20 -41 3 -36 4
-37 42 -37 21 0 42 -4 45 -10 3 -5 2 -10 -4 -10 -6 0 0 -10 12 -23 13 -13 25
-18 29 -12 4 5 9 3 13 -7 4 -9 23 -18 46 -22 21 -3 39 -11 39 -17 0 -7 10 -21
23 -32 15 -13 18 -21 10 -24 -18 -7 -16 -20 9 -53 19 -26 28 -30 70 -30 26 0
48 -4 48 -10 0 -5 18 -10 40 -10 38 0 40 -2 40 -30 0 -22 5 -30 17 -30 13 0
14 3 5 12 -7 7 -12 16 -12 20 0 14 19 8 38 -12 10 -11 25 -19 33 -17 8 2 11 2
7 0 -5 -3 -8 -15 -8 -29 0 -21 4 -23 40 -20 22 2 40 -1 40 -5 0 -5 -11 -9 -25
-9 -14 0 -25 -5 -25 -11 0 -8 14 -10 43 -6 23 3 34 3 25 0 -31 -8 -20 -23 16
-23 25 0 44 -9 68 -30 18 -16 38 -30 44 -30 16 0 24 -23 17 -49 -3 -14 -1 -21
8 -21 12 0 12 -2 0 -9 -20 -13 50 -81 83 -81 19 0 23 -4 19 -20 -3 -11 -12
-20 -19 -20 -8 0 -14 -9 -14 -20 0 -17 -7 -20 -40 -20 l-40 0 0 -40 0 -40
-120 0 -120 0 0 -40 0 -39 78 -3 77 -3 3 -37 3 -38 -120 0 -121 0 0 -40 0 -40
-200 0 -200 0 0 80 0 80 -30 0 -30 0 0 -75 c0 -42 4 -76 10 -76 6 -1 15 -3 20
-4 6 -1 15 -3 20 -4 6 -1 10 -48 10 -121 l0 -120 -120 0 -120 0 0 -120 0 -120
40 0 40 0 0 -40 0 -40 80 0 80 0 0 -30 c0 -28 2 -30 40 -30 22 0 40 -4 40 -10
0 -6 -33 -10 -80 -10 l-80 0 0 -40 0 -40 160 0 160 0 0 -40 0 -40 80 0 80 0 0
-80 c0 -66 -3 -80 -16 -80 -8 0 -22 -7 -30 -15 -9 -8 -20 -15 -25 -15 -5 0 -9
7 -9 15 0 12 -16 15 -80 15 l-80 0 0 -40 0 -40 -80 0 -80 0 0 -80 0 -80 -80 0
-80 0 0 -80 0 -80 -160 0 -160 0 0 -40 0 -40 -80 0 -80 0 0 -40 0 -40 40 0 40
0 0 -40 0 -40 80 0 80 0 0 80 0 80 120 0 120 0 0 -80 0 -80 -40 0 c-40 0 -40
0 -40 -39 0 -22 5 -41 13 -44 6 -2 -12 -2 -40 1 l-53 5 0 -41 0 -41 -47 -3
c-39 -2 -49 -7 -51 -23 -2 -11 -9 -24 -14 -30 -7 -7 -9 -3 -6 12 4 15 0 23
-13 26 -10 3 -20 2 -23 -1 -10 -10 -6 -62 5 -62 5 0 7 -4 4 -10 -3 -5 0 -10 7
-10 9 -1 7 -5 -4 -14 -10 -7 -18 -20 -18 -29 0 -16 -49 -57 -68 -57 -6 0 -12
5 -14 12 -3 8 -11 5 -25 -9 -11 -11 -26 -22 -33 -25 -12 -4 -21 -78 -10 -78 3
0 6 -9 7 -20 1 -15 -4 -20 -22 -20 -26 0 -55 -24 -55 -46 0 -8 -4 -14 -10 -14
-5 0 -10 -6 -10 -14 0 -18 -39 -13 -52 6 -6 10 -10 10 -17 -1 -6 -10 -5 -22 5
-35 20 -28 18 -36 -9 -36 -13 0 -32 -9 -42 -20 -13 -15 -21 -17 -26 -9 -10 18
-41 -15 -33 -35 5 -12 0 -16 -18 -16 -32 0 -62 -33 -55 -60 4 -14 0 -20 -11
-20 -10 0 -32 -18 -51 -40 -19 -22 -42 -40 -52 -40 -11 0 -19 -7 -20 -17 0
-16 -2 -15 -10 2 -7 15 -8 9 -6 -26 2 -39 0 -45 -15 -41 -11 2 -26 -5 -38 -19
-17 -21 -21 -22 -30 -9 -6 9 -13 11 -17 5 -5 -6 -20 -16 -35 -24 -14 -7 -29
-22 -31 -32 -4 -14 -14 -19 -41 -19 l-36 0 0 50 0 50 -80 0 -80 0 0 -40 0 -40
-80 0 -80 0 0 -40 0 -40 -40 0 -40 0 0 -80 0 -80 -120 0 -120 0 0 -40 0 -40
-40 0 -40 0 0 -40 0 -40 -80 0 -80 0 0 40 0 40 -40 0 -40 0 0 40 0 40 40 0 40
0 0 40 0 40 80 0 80 0 0 40 0 40 40 0 40 0 0 160 0 160 80 0 80 0 0 120 0 120
40 0 40 0 0 40 c0 38 2 40 30 40 l30 0 0 -80 0 -80 -30 0 -30 0 0 -80 0 -80
80 0 80 0 1 83 c0 45 3 76 6 70 3 -10 44 -13 153 -13 l149 0 17 40 c10 22 22
40 28 40 13 0 66 51 66 63 0 6 8 16 18 23 15 12 12 13 -26 14 -32 0 -49 -6
-67 -25 -14 -13 -25 -31 -25 -40 0 -12 -15 -15 -80 -15 l-80 0 0 40 0 40 80 0
80 0 0 80 0 80 80 0 80 0 0 80 0 80 80 0 80 0 0 40 0 40 40 0 40 0 0 40 0 40
40 0 40 0 0 80 0 80 80 0 80 0 0 40 0 40 -40 0 -40 0 0 80 0 80 -40 0 -40 0 0
80 0 80 -80 0 -80 0 0 40 0 40 120 0 120 0 0 160 0 160 40 0 40 0 0 40 0 40
-280 0 -280 0 0 40 0 40 40 0 40 0 0 40 0 40 40 0 40 0 0 120 0 120 40 0 40 0
0 80 0 80 -40 0 -40 0 0 120 0 120 -40 0 -40 0 0 40 0 40 -40 0 -40 0 0 160 0
160 -80 0 -80 0 0 40 0 40 40 0 40 0 0 40 0 40 40 0 40 0 0 40 0 40 -40 0 -40
0 0 40 0 40 -200 0 -200 0 0 -40 0 -40 -40 0 -40 0 0 -40 0 -40 -160 0 -160 0
0 -40 0 -40 40 0 40 0 0 -40 0 -40 -160 0 -160 0 0 40 0 40 80 0 80 0 0 40 0
40 -40 0 -40 0 0 40 0 40 -40 0 -40 0 0 40 0 40 120 0 120 0 0 -40 0 -40 120
0 120 0 0 40 0 40 -80 0 -80 0 0 40 0 40 -80 0 -80 0 0 40 0 40 200 0 200 0 0
80 0 80 40 0 40 0 0 80 0 80 -45 0 c-42 0 -45 2 -45 28 0 43 11 72 26 72 19 0
84 -65 84 -84 0 -15 95 -30 135 -22 11 3 30 5 43 5 21 1 22 5 22 76 0 43 4 75
10 75 6 0 10 -32 10 -75 l0 -75 30 0 30 0 0 -74 c0 -81 4 -86 66 -86 l34 0 0
-74 c0 -50 4 -75 13 -78 6 -2 41 -4 77 -4 l65 1 3 73 3 72 29 0 30 0 0 -75 c0
-68 2 -75 20 -75 18 0 20 7 20 80 l0 80 -52 2 c-51 1 -51 2 -10 5 41 4 42 5
42 39 l0 34 -120 0 -120 0 0 -35 c0 -19 -4 -35 -10 -35 -5 0 -10 16 -10 35 0
28 -4 35 -20 35 -17 0 -20 7 -20 40 0 38 2 40 30 40 l30 0 0 80 0 80 -110 0
-110 0 0 -40 c0 -22 -4 -40 -10 -40 -6 0 -10 33 -10 80 l0 80 -40 0 -40 0 0
-40 c0 -33 -3 -40 -20 -40 -24 0 -25 -6 -6 -26 20 -19 26 -18 26 6 0 16 7 20
30 20 l30 0 0 -75 0 -75 -30 0 c-28 0 -30 3 -30 35 0 25 -4 35 -15 35 -20 0
-65 45 -65 65 0 9 -9 15 -24 15 -51 0 -56 7 -56 86 l0 74 -75 0 -75 0 -2 -37
-1 -38 -4 38 c-3 30 -8 37 -26 38 -22 2 -22 2 1 6 22 4 22 7 22 159 l0 154
-80 0 -80 0 0 80 c0 57 4 80 13 80 9 0 9 2 -1 9 -9 5 -12 28 -10 77 l3 69 78
3 77 3 0 119 0 120 80 0 c50 0 80 4 80 11 0 5 5 7 12 3 9 -6 9 -9 0 -12z
m-284 -1 c47 -1 40 -21 -8 -21 -22 0 -40 5 -40 10 0 6 -4 10 -10 10 -5 0 -10
-7 -10 -16 0 -9 -10 -25 -22 -36 -20 -17 -24 -18 -34 -4 -6 9 -22 16 -35 16
-23 1 -24 1 -4 15 11 8 25 19 30 24 6 6 30 9 55 6 25 -2 60 -4 78 -4z m-188
-71 c0 -5 -4 -10 -10 -10 -5 0 -10 5 -10 10 0 6 5 10 10 10 6 0 10 -4 10 -10z
m203 -7 c-13 -2 -33 -2 -45 0 -13 2 -3 4 22 4 25 0 35 -2 23 -4z m-145 -10
c-13 -3 -18 -15 -18 -39 0 -30 -3 -34 -25 -34 -22 0 -25 4 -25 34 0 36 11 43
65 43 16 1 17 0 3 -4z m82 -72 c0 -39 -4 -73 -10 -76 -6 -4 -10 22 -10 69 0
44 4 76 10 76 6 0 10 -30 10 -69z m-200 13 c0 -8 -4 -12 -10 -9 -5 3 -10 10
-10 16 0 5 5 9 10 9 6 0 10 -7 10 -16z m760 -54 c0 -29 -4 -40 -15 -40 -10 0
-15 10 -15 30 0 17 -5 30 -11 30 -5 0 -7 5 -4 10 3 6 15 10 26 10 16 0 19 -7
19 -40z m-880 -290 c0 -5 -2 -10 -4 -10 -3 0 -8 5 -11 10 -3 6 -1 10 4 10 6 0
11 -4 11 -10z m318 -187 c-3 -36 -5 -38 -40 -41 l-38 -3 0 40 0 41 41 0 40 0
-3 -37z m1117 27 c3 -5 -3 -10 -14 -10 -12 0 -21 5 -21 10 0 6 6 10 14 10 8 0
18 -4 21 -10z m905 -845 c0 -8 -4 -15 -10 -15 -5 0 -10 7 -10 15 0 8 5 15 10
15 6 0 10 -7 10 -15z m80 -75 c0 -5 -4 -10 -10 -10 -5 0 -10 5 -10 10 0 6 5
10 10 10 6 0 10 -4 10 -10z m860 -740 c0 -5 -4 -10 -10 -10 -5 0 -10 5 -10 10
0 6 5 10 10 10 6 0 10 -4 10 -10z m-220 -380 c0 -5 9 -10 20 -10 11 0 20 -4
20 -10 0 -5 -13 -10 -30 -10 -23 0 -30 4 -30 20 0 11 5 20 10 20 6 0 10 -4 10
-10z m-2180 -710 c0 -22 -4 -40 -10 -40 -5 0 -10 18 -10 40 0 22 5 40 10 40 6
0 10 -18 10 -40z m-240 -400 l0 -40 -40 0 -40 0 0 40 0 40 40 0 40 0 0 -40z
m320 -680 l0 -80 -80 0 -80 0 0 40 0 40 40 0 40 0 0 40 0 40 40 0 40 0 0 -80z
m977 38 c-3 -8 -6 -5 -6 6 -1 11 2 17 5 13 3 -3 4 -12 1 -19z m-1137 -233 c0
-19 -4 -35 -9 -35 -5 0 -23 -3 -40 -6 -31 -6 -31 -6 -31 35 l0 41 40 0 c39 0
40 -1 40 -35z m0 -125 c0 -40 -4 -70 -10 -70 -6 0 -10 30 -10 70 0 40 4 70 10
70 6 0 10 -30 10 -70z m-3920 -360 l0 -40 -40 0 -40 0 0 -80 0 -80 -80 0 -80
0 0 -40 0 -40 80 0 80 0 0 -40 0 -40 -80 0 -80 0 0 -40 0 -40 -80 0 -80 0 0
-40 0 -40 -80 0 -80 0 0 -40 0 -40 40 0 40 0 0 -40 0 -40 40 0 40 0 0 -40 0
-40 -40 0 -40 0 0 -40 0 -40 -80 0 -80 0 0 -120 0 -120 -40 0 -40 0 0 -40 0
-40 -40 0 -40 0 0 40 0 40 -80 0 -80 0 0 -40 0 -40 -80 0 -80 0 0 40 0 40 -40
0 -40 0 0 -40 0 -40 -40 0 -40 0 0 40 0 40 -40 0 -40 0 0 40 0 40 -40 0 -40 0
0 40 0 40 40 0 40 0 0 120 0 120 80 0 80 0 0 40 0 40 40 0 40 0 0 40 0 40 40
0 40 0 0 40 0 40 40 0 40 0 0 40 0 40 40 0 40 0 0 40 0 40 40 0 40 0 0 40 0
40 80 0 80 0 0 40 0 40 160 0 160 0 0 40 0 40 120 0 120 0 0 40 0 40 40 0 40
0 0 -40z m160 0 l0 -40 -40 0 -40 0 0 40 0 40 40 0 40 0 0 -40z m-80 -160 l0
-40 -40 0 -40 0 0 40 0 40 40 0 40 0 0 -40z m4000 -80 c0 -23 5 -40 11 -40 8
0 8 -5 -1 -15 -10 -12 -10 -15 1 -16 10 0 11 -2 2 -6 -7 -2 -13 -14 -13 -24 0
-11 -4 -18 -10 -14 -5 3 -18 -3 -30 -15 -22 -22 -35 -26 -24 -7 4 7 3 9 -2 4
-9 -9 -11 -14 -13 -47 0 -12 -8 -20 -19 -20 -9 0 -23 -9 -30 -20 -20 -33 -30
-23 -39 38 l-8 57 -5 -75 -5 -75 -67 -2 -68 -1 0 39 c0 39 0 39 40 39 l40 0 0
40 c0 40 0 40 39 40 33 0 40 -4 44 -22 2 -13 2 5 -1 40 l-5 62 42 0 41 0 0 40
0 40 40 0 40 0 0 -40z m-65 -230 c3 -5 1 -10 -4 -10 -6 0 -11 5 -11 10 0 6 2
10 4 10 3 0 8 -4 11 -10z m-195 -140 c0 -5 -2 -10 -4 -10 -3 0 -8 5 -11 10 -3
6 -1 10 4 10 6 0 11 -4 11 -10z m-360 -234 c0 -3 -4 -8 -10 -11 -5 -3 -10 -1
-10 4 0 6 5 11 10 11 6 0 10 -2 10 -4z m-4980 -516 l0 -40 -40 0 -40 0 0 40 0
40 40 0 40 0 0 -40z m240 0 l0 -40 -40 0 -40 0 0 40 0 40 40 0 40 0 0 -40z
m-400 -160 l0 -40 40 0 40 0 0 -40 0 -40 40 0 40 0 0 -80 0 -80 -80 0 -80 0 0
-40 0 -40 -80 0 -80 0 0 -40 0 -40 -120 0 -120 0 0 40 0 40 40 0 40 0 0 40 0
40 -80 0 -80 0 0 40 0 40 40 0 40 0 0 40 0 40 80 0 80 0 0 40 0 40 80 0 80 0
0 40 0 40 40 0 40 0 0 -40z m3860 -444 c0 -3 -4 -8 -10 -11 -5 -3 -10 -1 -10
4 0 6 5 11 10 11 6 0 10 -2 10 -4z m-341 -233 c-3 -71 -2 -78 16 -81 17 -3 17
-1 5 7 -12 8 -6 11 23 11 20 0 37 -2 37 -4 0 -2 3 -11 6 -20 3 -9 1 -16 -6
-16 -6 0 -9 4 -5 9 3 5 1 12 -4 15 -5 3 -12 -1 -15 -9 -3 -9 -17 -20 -31 -25
-15 -6 -25 -17 -25 -30 0 -16 -7 -20 -30 -20 -28 0 -30 -2 -30 -40 0 -38 -1
-39 -29 -34 -16 3 -32 1 -35 -5 -4 -5 -13 -8 -21 -4 -8 3 -15 1 -15 -5 0 -11
25 -10 36 1 16 16 31 5 29 -20 -3 -42 -2 -41 -41 -59 -30 -14 -34 -21 -30 -40
4 -13 3 -24 -1 -25 -5 0 -17 -3 -28 -5 -11 -2 -27 -5 -36 -6 -9 -1 -15 -8 -12
-15 7 -18 -32 -17 -51 2 -22 23 -26 19 -26 -25 l0 -40 -80 0 -80 0 0 -40 0
-40 -80 0 -80 0 0 80 0 80 40 0 40 0 0 40 0 40 40 0 40 0 0 40 0 40 40 0 40 0
0 80 0 80 80 0 80 0 0 40 0 40 40 0 40 0 0 40 0 40 81 0 81 0 -3 -77z m-799
-683 l0 -120 -120 0 -120 0 0 40 0 40 40 0 40 0 0 40 0 40 40 0 40 0 0 40 0
40 40 0 40 0 0 -120z m280 32 c0 -4 -5 -13 -12 -20 -18 -18 -28 -15 -28 8 0
13 7 20 20 20 11 0 20 -4 20 -8z m-1160 -352 l0 -40 -40 0 -40 0 0 -80 0 -80
160 0 160 0 0 80 0 80 40 0 40 0 0 40 0 40 80 0 80 0 0 -80 0 -80 -40 0 -40 0
0 -40 0 -40 -40 0 -40 0 0 -80 c0 -73 2 -80 20 -80 11 0 20 -4 20 -10 0 -5 -9
-15 -20 -22 -21 -13 -28 -48 -9 -48 5 0 7 -4 4 -10 -3 -5 -26 -10 -51 -10 -42
0 -44 -1 -44 -30 0 -20 -5 -30 -15 -30 -8 0 -15 -3 -15 -7 0 -5 -11 -13 -25
-20 -22 -10 -25 -9 -25 9 0 16 -6 19 -37 16 -35 -3 -38 -6 -41 -36 -3 -26 1
-35 16 -39 17 -4 18 -8 8 -29 -6 -13 -14 -24 -18 -24 -5 0 -8 -7 -8 -15 0 -9
-9 -15 -23 -15 -27 0 -57 -32 -57 -60 0 -11 -7 -20 -15 -20 -8 0 -25 -11 -39
-25 -19 -18 -36 -25 -66 -25 -28 0 -40 -4 -40 -14 0 -8 4 -16 9 -18 5 -1 -1
-16 -15 -31 -13 -15 -24 -24 -24 -19 0 5 7 15 15 22 19 16 19 30 -1 30 -8 0
-13 -4 -9 -9 3 -5 1 -12 -5 -16 -5 -3 -10 1 -10 9 0 9 -9 16 -20 16 -17 0 -20
-7 -20 -40 0 -22 5 -40 11 -40 5 0 7 -5 3 -12 -6 -9 -9 -9 -12 0 -2 7 -21 12
-43 12 -39 0 -39 0 -39 -40 l0 -40 -80 0 -80 0 0 -40 0 -40 -40 0 -40 0 0 -40
0 -40 -40 0 c-22 0 -40 -4 -40 -10 0 -5 -18 -10 -40 -10 -22 0 -40 5 -40 10 0
6 -18 10 -40 10 l-40 0 0 40 0 40 -40 0 -40 0 0 120 0 120 80 0 80 0 0 80 0
80 40 0 40 0 0 40 0 40 40 0 40 0 0 160 0 160 40 0 40 0 0 40 0 40 120 0 120
0 0 80 0 80 80 0 80 0 0 40 0 40 40 0 40 0 0 -40z m820 36 c0 -3 -4 -8 -10
-11 -5 -3 -10 -1 -10 4 0 6 5 11 10 11 6 0 10 -2 10 -4z m-380 -326 c0 -5 -9
-10 -20 -10 -11 0 -20 5 -20 10 0 6 9 10 20 10 11 0 20 -4 20 -10z m-793 -876
c-3 -3 -12 -4 -19 -1 -8 3 -5 6 6 6 11 1 17 -2 13 -5z"/>
<path d="M16800 23280 l0 -80 80 0 80 0 0 40 0 40 -40 0 -40 0 0 40 0 40 -40
0 -40 0 0 -80z"/>
<path d="M17615 23210 c3 -5 8 -10 11 -10 2 0 4 5 4 10 0 6 -5 10 -11 10 -5 0
-7 -4 -4 -10z"/>
<path d="M17280 23160 l0 -40 40 0 40 0 0 40 0 40 -40 0 -40 0 0 -40z"/>
<path d="M17120 22920 l0 -40 40 0 40 0 0 40 0 40 -40 0 -40 0 0 -40z"/>
<path d="M17920 22820 c0 -16 7 -20 30 -20 34 0 37 5 16 26 -21 21 -46 17 -46
-6z"/>
<path d="M18000 22750 c0 -23 4 -30 20 -30 23 0 27 25 6 46 -21 21 -26 18 -26
-16z"/>
<path d="M18160 22600 c0 -22 5 -40 10 -40 6 0 10 18 10 40 0 22 -4 40 -10 40
-5 0 -10 -18 -10 -40z"/>
<path d="M18240 22500 c0 -16 7 -20 30 -20 34 0 37 5 16 26 -21 21 -46 17 -46
-6z"/>
<path d="M18320 22430 c0 -23 4 -30 20 -30 23 0 27 25 6 46 -21 21 -26 18 -26
-16z"/>
<path d="M18728 22073 c6 -2 18 -2 25 0 6 3 1 5 -13 5 -14 0 -19 -2 -12 -5z"/>
<path d="M18872 21938 c-1 -11 -10 -18 -23 -18 -25 0 -23 -27 3 -44 24 -14 30
-4 25 40 -2 22 -4 31 -5 22z"/>
<path d="M18560 21880 l0 -40 80 0 c47 0 80 -4 80 -10 0 -5 18 -10 40 -10 22
0 40 5 40 10 0 6 -18 10 -40 10 l-40 0 0 40 0 40 -80 0 -80 0 0 -40z"/>
<path d="M18722 21323 l3 -38 78 -3 77 -3 0 41 0 40 -81 0 -80 0 3 -37z"/>
<path d="M18240 20680 l0 -40 40 0 40 0 0 40 0 40 -40 0 -40 0 0 -40z"/>
<path d="M18080 20600 l0 -40 40 0 40 0 0 40 0 40 -40 0 -40 0 0 -40z"/>
<path d="M18160 20200 l0 -40 40 0 40 0 0 40 0 40 -40 0 -40 0 0 -40z"/>
<path d="M12480 18280 l0 -40 40 0 40 0 0 40 0 40 -40 0 -40 0 0 -40z"/>
<path d="M12800 18280 l0 -40 80 0 80 0 0 40 0 40 -80 0 -80 0 0 -40z"/>
<path d="M33348 15783 c-29 -25 -363 -356 -742 -735 -699 -700 -1228 -1212
-1392 -1348 -50 -41 -122 -100 -161 -131 -88 -71 -95 -91 -44 -139 42 -40 125
-66 356 -110 33 -7 105 -25 160 -41 55 -16 163 -44 240 -63 77 -19 237 -60
355 -91 118 -31 303 -79 410 -106 372 -95 466 -121 600 -166 74 -26 212 -67
305 -93 94 -26 215 -62 270 -80 55 -17 174 -51 265 -75 91 -23 215 -57 275
-74 276 -77 336 -94 425 -117 129 -33 286 -49 351 -35 97 21 271 172 285 248
16 84 -28 200 -144 378 -100 154 -256 404 -340 545 -44 74 -113 189 -153 255
-40 66 -105 176 -144 245 -40 69 -130 220 -200 335 -119 195 -285 482 -599
1035 -202 354 -220 378 -294 399 -27 8 -36 5 -84 -36z"/>
<path d="M8710 15209 c-87 -105 -344 -451 -390 -527 -25 -40 -65 -101 -90
-137 -25 -35 -58 -87 -75 -115 -27 -46 -131 -200 -152 -225 -5 -5 -27 -39 -48
-75 -34 -56 -107 -163 -133 -195 -4 -5 -9 -14 -9 -18 -1 -5 -13 -22 -27 -38
-14 -16 -26 -32 -26 -37 0 -4 -13 -23 -30 -42 -16 -19 -29 -39 -30 -45 0 -5
-13 -22 -28 -37 -15 -15 -38 -48 -51 -75 -14 -26 -34 -61 -45 -78 -12 -16 -30
-47 -40 -67 -11 -21 -23 -38 -28 -38 -5 0 -13 -10 -19 -22 -19 -43 -37 -70
-67 -101 -29 -30 -142 -183 -142 -192 0 -3 -16 -30 -36 -61 -20 -31 -52 -91
-71 -133 -19 -42 -43 -93 -54 -114 -23 -47 -24 -99 -3 -132 27 -41 65 -33 166
35 48 33 91 60 94 60 11 0 178 82 194 95 21 18 109 65 120 65 5 0 33 14 62 31
29 18 78 45 108 62 30 16 118 71 195 122 77 51 167 107 200 125 105 57 257
152 345 215 103 73 240 165 415 275 72 46 177 120 235 166 58 46 161 125 230
175 69 51 151 115 183 142 73 64 75 85 10 158 -88 98 -327 327 -413 396 -47
37 -171 152 -276 255 -105 104 -198 188 -207 188 -9 0 -39 -27 -67 -61z"/>
<path d="M8385 11535 c-88 -22 -136 -44 -200 -90 -70 -50 -121 -113 -163 -201
l-27 -59 -6 -1730 c-5 -1152 -10 -1750 -17 -1790 -24 -133 -43 -200 -78 -273
-65 -135 -176 -223 -325 -258 -95 -23 -308 -20 -444 5 -196 37 -312 22 -440
-54 -117 -71 -184 -154 -217 -274 -23 -84 -23 -149 1 -240 77 -293 410 -417
1025 -382 580 34 984 219 1228 561 173 243 259 544 298 1045 14 176 13 3240
-1 3324 -47 283 -359 487 -634 416z"/>
<path d="M11451 11529 c-96 -25 -149 -51 -216 -106 -90 -72 -164 -196 -225
-373 -33 -95 -226 -663 -344 -1010 -122 -357 -321 -940 -420 -1225 -24 -71
-101 -294 -169 -495 -69 -201 -152 -444 -186 -540 -33 -96 -108 -314 -166
-485 -58 -170 -123 -357 -143 -415 -33 -96 -36 -115 -36 -215 -1 -129 17 -186
87 -278 53 -71 112 -116 207 -158 74 -33 78 -34 216 -34 l140 0 88 44 c109 53
199 138 245 230 18 35 55 134 83 220 123 383 190 581 198 586 10 6 1570 8
1576 2 5 -5 66 -174 150 -417 108 -312 115 -330 142 -385 43 -86 141 -177 249
-232 l95 -48 120 -4 c136 -4 176 4 282 55 175 84 266 245 253 449 -6 97 -19
142 -157 535 -69 199 -155 450 -225 655 -19 55 -70 206 -115 335 -45 129 -99
287 -120 350 -21 63 -82 241 -135 395 -129 376 -222 646 -310 905 -40 118
-101 296 -135 395 -34 99 -68 198 -75 220 -63 189 -199 576 -226 640 -87 211
-204 337 -359 388 -127 42 -251 47 -369 16z m184 -1565 c29 -242 70 -428 176
-784 44 -146 89 -296 100 -335 11 -38 29 -97 38 -130 10 -33 26 -87 35 -120
20 -68 49 -168 101 -338 20 -64 34 -121 31 -126 -3 -4 -234 -7 -513 -5 l-508
3 1 33 c1 18 10 62 21 98 83 264 165 532 193 625 17 61 49 164 71 230 98 306
145 498 179 725 23 152 47 266 56 258 2 -3 11 -63 19 -134z"/>
<path d="M13832 11536 c-153 -38 -313 -161 -373 -290 -23 -50 -32 -85 -36
-146 -10 -143 -2 -165 229 -615 116 -225 274 -534 351 -685 206 -407 335 -657
643 -1255 l119 -230 5 -880 5 -880 43 -81 c66 -125 154 -205 281 -256 48 -19
75 -22 196 -23 l140 0 79 38 c44 20 98 52 121 71 59 48 121 133 153 207 l27
64 5 870 5 870 169 330 c93 182 212 416 266 520 409 796 848 1669 869 1725 35
94 43 179 27 260 -19 91 -54 150 -141 235 -113 111 -232 160 -385 159 -178 -1
-317 -73 -404 -209 -18 -27 -229 -446 -470 -930 -242 -484 -443 -886 -449
-893 -7 -9 -13 -10 -24 -1 -8 7 -86 157 -175 333 -346 691 -722 1434 -755
1488 -56 95 -138 153 -271 194 -86 27 -166 30 -250 10z"/>
<path d="M18840 11535 c-91 -20 -135 -40 -203 -88 -69 -49 -102 -87 -159 -177
-44 -72 -71 -138 -163 -410 -43 -124 -110 -322 -151 -440 -78 -230 -242 -709
-317 -930 -25 -74 -60 -175 -78 -225 -17 -49 -64 -187 -105 -305 -40 -118
-116 -341 -169 -495 -53 -154 -118 -345 -145 -425 -27 -80 -68 -199 -91 -265
-23 -66 -74 -217 -115 -335 -69 -202 -140 -407 -202 -580 -24 -66 -27 -89 -27
-200 0 -122 1 -127 34 -194 47 -94 126 -172 221 -219 98 -48 159 -60 283 -55
88 3 112 8 177 36 94 40 186 113 236 189 42 64 66 127 210 565 l98 298 775 2
c427 2 783 2 791 0 19 -4 43 -66 200 -524 80 -231 118 -317 171 -382 38 -45
129 -108 218 -150 64 -30 70 -31 206 -31 130 0 145 2 209 28 86 35 142 73 195
133 82 93 117 206 108 344 -6 90 -5 85 -197 640 -50 146 -100 290 -110 320
-10 30 -62 181 -115 335 -52 154 -120 352 -150 440 -30 88 -90 266 -135 395
-130 378 -209 608 -246 720 -19 58 -39 114 -44 125 -5 11 -25 67 -44 125 -19
58 -78 231 -131 385 -52 154 -118 345 -145 425 -146 433 -188 543 -246 648
-45 81 -139 177 -214 219 -114 64 -297 89 -430 58z m154 -1530 c4 -33 11 -76
15 -95 5 -19 14 -69 21 -110 6 -41 20 -113 31 -160 10 -47 19 -92 19 -100 0
-8 9 -44 20 -80 11 -36 40 -135 64 -220 68 -239 162 -562 205 -700 21 -69 46
-152 56 -185 9 -33 27 -93 41 -134 16 -50 21 -78 14 -86 -7 -9 -136 -11 -510
-10 -276 1 -504 5 -507 9 -9 9 8 74 84 315 74 237 171 552 183 596 5 17 23 77
40 135 43 143 44 147 83 295 37 141 78 354 97 505 7 52 15 99 17 104 10 15 20
-17 27 -79z"/>
<path d="M25441 11539 c-245 -48 -378 -190 -490 -524 -22 -66 -81 -239 -131
-385 -50 -146 -104 -303 -120 -350 -16 -47 -86 -251 -155 -455 -223 -650 -236
-690 -241 -710 -3 -11 -10 -29 -14 -40 -5 -11 -21 -56 -36 -100 -42 -127 -145
-427 -244 -715 -50 -146 -120 -350 -155 -455 -35 -104 -87 -255 -115 -335 -28
-80 -68 -197 -89 -260 -21 -63 -61 -180 -89 -260 -74 -215 -84 -281 -61 -392
16 -75 53 -143 113 -206 60 -64 95 -87 191 -128 65 -27 78 -29 205 -29 l135 0
88 44 c106 52 198 138 244 226 17 33 66 166 108 295 42 129 98 298 123 375 25
77 47 141 47 143 3 4 1576 4 1580 0 8 -7 104 -276 240 -671 46 -132 78 -187
149 -258 45 -45 86 -73 156 -107 l95 -47 140 0 c130 0 145 2 208 28 203 82
311 237 309 441 -1 98 -17 155 -147 531 -53 154 -119 345 -146 425 -28 80 -79
228 -114 330 -34 102 -81 239 -104 305 -23 66 -60 172 -81 235 -119 349 -178
524 -270 790 -128 370 -180 524 -230 670 -21 63 -78 228 -125 365 -47 138
-124 360 -169 495 -121 356 -144 409 -228 522 -78 107 -186 174 -325 203 -74
16 -183 18 -252 4z m129 -1487 c0 -77 88 -504 142 -687 16 -55 33 -116 38
-135 6 -19 26 -91 46 -160 20 -69 39 -138 44 -155 4 -16 42 -145 85 -285 137
-457 146 -490 141 -499 -7 -10 -1011 -9 -1022 2 -10 9 3 60 61 242 49 153 150
480 245 790 75 247 106 362 129 480 6 33 18 94 26 136 8 41 19 118 25 170 13
121 19 150 31 143 5 -3 9 -22 9 -42z"/>
<path d="M32036 11535 c-176 -49 -331 -193 -372 -347 -12 -45 -14 -407 -14
-2315 0 -1616 3 -2277 11 -2315 14 -68 57 -143 121 -213 38 -42 73 -67 146
-103 l95 -47 141 0 141 0 80 39 c110 54 201 145 253 252 l37 79 5 808 5 809
60 69 c33 38 65 69 71 69 7 0 42 -42 80 -92 133 -180 444 -598 754 -1013 304
-407 516 -693 569 -765 44 -61 153 -169 195 -194 94 -54 154 -68 283 -64 118
3 121 4 206 46 66 33 98 56 142 105 121 133 171 305 131 455 -19 71 -32 91
-193 303 -77 101 -299 396 -494 654 -195 259 -447 592 -559 740 -365 482 -440
584 -440 593 0 5 33 45 73 89 57 63 407 459 494 559 20 23 142 161 158 178 6
6 76 85 155 176 80 91 187 212 239 270 51 58 105 119 120 135 14 17 60 69 101
115 204 229 234 276 250 394 13 90 -5 191 -46 263 -40 69 -159 183 -224 214
-180 87 -278 89 -446 8 -96 -45 -157 -98 -298 -258 -56 -63 -155 -176 -221
-251 -66 -75 -214 -244 -330 -375 -115 -131 -244 -277 -285 -325 -419 -484
-523 -600 -538 -600 -8 0 -12 212 -14 748 l-3 748 -39 80 c-69 139 -192 238
-346 279 -67 18 -188 18 -254 0z"/>
<path d="M27779 11462 c-36 -10 -92 -33 -123 -52 -83 -50 -187 -163 -227 -246
-30 -63 -33 -77 -33 -165 0 -89 2 -100 37 -173 56 -118 147 -199 286 -254 l66
-27 453 -3 c248 -2 453 -4 454 -5 2 -1 5 -902 8 -2002 l5 -2000 29 -60 c45
-91 155 -196 253 -243 l78 -37 145 0 145 0 79 38 c43 20 100 55 127 78 50 41
125 147 150 209 12 29 15 356 19 2025 l5 1990 450 5 c333 4 459 9 485 19 194
72 322 199 366 365 18 65 17 99 -1 169 -24 91 -55 146 -123 219 -73 77 -186
141 -281 158 -34 6 -555 10 -1420 9 -1258 0 -1371 -2 -1432 -17z"/>
</g>
</svg>
