<?xml version="1.0" standalone="no"?>
<!DOCTYPE svg PUBLIC "-//W3C//DTD SVG 20010904//EN"
 "http://www.w3.org/TR/2001/REC-SVG-20010904/DTD/svg10.dtd">
<svg version="1.0" xmlns="http://www.w3.org/2000/svg"
 width="2500.000000pt" height="2500.000000pt" viewBox="0 0 2500.000000 2500.000000"
 preserveAspectRatio="xMidYMid meet">

<g transform="translate(0.000000,2500.000000) scale(0.100000,-0.100000)"
fill="#000000" stroke="none">
<path d="M17935 18386 c-32 -10 -441 -299 -575 -406 l-25 -20 27 0 c21 0 29
-6 34 -24 5 -22 12 -24 132 -35 199 -19 190 -16 204 -68 7 -28 18 -47 28 -50
10 -3 22 -21 28 -41 6 -20 20 -70 32 -111 l22 -74 106 6 c170 10 317 53 448
131 107 63 101 47 65 172 -17 60 -38 130 -46 157 l-14 47 87 66 87 65 27 -88
c14 -48 32 -107 38 -130 6 -26 17 -43 25 -43 20 0 20 -2 -25 149 -22 74 -39
135 -38 136 89 59 100 70 94 99 -4 16 -7 30 -9 32 -1 1 -87 7 -192 13 -104 7
-251 16 -325 21 -167 12 -185 12 -235 -4z"/>
<path d="M13240 17778 c0 -7 39 -41 88 -75 48 -34 204 -149 347 -254 143 -106
445 -328 670 -494 226 -166 615 -452 865 -636 624 -460 583 -430 594 -419 7 7
4 16 -9 29 -11 10 -328 245 -705 522 -377 276 -725 532 -775 569 -637 471
-1048 770 -1060 770 -8 0 -15 -6 -15 -12z"/>
<path d="M11575 17100 c-361 -41 -670 -183 -883 -404 -266 -278 -430 -727
-409 -1122 6 -105 5 -113 -15 -130 -39 -35 -107 -151 -133 -227 -81 -242 28
-515 254 -635 49 -27 179 -67 188 -58 2 1 6 16 9 33 6 30 5 31 -45 42 -213 46
-362 233 -362 457 0 105 21 171 84 266 35 53 47 59 47 26 0 -13 9 -57 20 -98
16 -61 17 -81 8 -107 -29 -79 28 -224 159 -410 51 -71 69 -90 79 -82 9 8 17 4
29 -15 10 -14 22 -23 31 -19 24 9 64 -24 219 -182 157 -161 189 -183 316 -225
129 -42 149 -51 149 -69 0 -37 -35 -54 -100 -48 -121 11 -286 112 -455 279
-130 129 -94 125 -355 39 -370 -123 -601 -269 -693 -439 -81 -148 -45 -307
114 -507 82 -102 144 -222 154 -295 22 -161 -108 -291 -365 -364 -150 -42
-407 -76 -587 -76 l-73 0 0 -29 c0 -16 9 -59 20 -95 83 -266 261 -485 513
-631 l47 -27 0 202 c0 111 4 209 10 219 21 40 57 43 211 22 79 -11 204 -27
278 -36 l134 -16 16 23 c8 13 26 33 39 45 16 15 23 30 19 42 -4 17 42 47 333
215 398 231 538 307 680 371 58 26 108 51 113 55 4 3 15 58 24 121 22 161 23
540 0 669 -17 100 -48 203 -69 228 -14 16 -17 17 65 -3 15 -4 27 -3 27 2 0 5
-40 90 -89 190 -83 168 -91 180 -120 186 -57 12 -175 67 -214 100 -33 28 -45
51 -88 172 -27 77 -54 167 -58 200 l-9 60 42 55 c41 54 43 55 98 58 49 3 64
-2 134 -39 200 -107 214 -113 270 -113 29 -1 55 -5 58 -11 2 -5 12 -65 21
-132 10 -67 21 -126 24 -130 3 -5 30 -28 59 -52 63 -52 38 -51 427 -20 508 39
622 58 714 118 96 62 133 70 331 75 162 3 369 31 616 82 31 6 32 5 54 -52 12
-32 30 -99 40 -149 28 -137 6 -217 -82 -301 -110 -106 -251 -127 -404 -59
l-53 23 -10 -31 c-13 -37 -11 -40 59 -67 116 -46 268 -42 368 9 82 42 175 157
196 243 20 87 -2 248 -50 365 -9 19 -14 36 -12 38 2 2 23 7 48 12 42 8 45 11
45 41 0 35 3 37 82 47 70 9 87 29 74 86 -5 24 -30 177 -56 339 -25 162 -54
349 -65 415 -11 66 -29 181 -40 255 -12 74 -27 141 -35 149 -12 12 -28 12
-104 2 -72 -10 -101 -10 -139 -1 -33 9 -65 10 -108 3 l-61 -9 -12 85 c-35 253
-129 435 -293 567 -117 94 -244 151 -391 174 -92 15 -297 8 -372 -13 -44 -12
-62 -12 -155 5 -123 21 -460 32 -585 18z m2140 -892 c15 -7 33 -24 40 -38 12
-24 121 -679 113 -684 -2 -1 -140 -24 -308 -50 -168 -26 -582 -91 -920 -145
l-615 -97 -7 26 c-20 79 -100 649 -94 673 3 15 16 33 29 41 12 8 144 33 292
57 149 23 531 84 850 135 319 50 583 93 587 93 4 1 19 -4 33 -11z m183 -919
c19 -125 20 -144 8 -174 -9 -21 -24 -36 -38 -40 -25 -5 -153 -26 -463 -75
-1373 -218 -1292 -209 -1321 -146 -17 38 -56 279 -46 287 4 3 351 59 772 124
421 65 828 128 905 140 77 13 145 23 151 24 6 1 19 -58 32 -140z m-3483 -971
c-16 -12 -57 -49 -90 -82 -163 -165 -239 -369 -252 -683 -3 -84 -10 -153 -15
-153 -20 0 -97 62 -153 121 -108 117 -163 282 -131 393 31 105 142 201 349
302 91 44 297 124 317 124 3 -1 -8 -10 -25 -22z"/>
<path d="M19325 16453 c-49 -80 -78 -96 -150 -81 -28 6 -83 25 -124 44 -41 19
-76 34 -78 34 -9 0 -81 -165 -75 -171 10 -10 367 -199 375 -199 4 0 38 63 77
140 56 112 70 149 70 186 0 49 -25 114 -44 114 -6 -1 -29 -30 -51 -67z"/>
<path d="M12996 14671 c6 -27 2 -32 -42 -60 -27 -17 -92 -45 -144 -62 -82 -28
-110 -32 -203 -33 -102 -1 -110 1 -127 22 -10 12 -20 28 -23 35 -4 9 -7 9 -17
0 -11 -10 -8 -20 15 -53 61 -87 174 -150 287 -158 l70 -5 -27 53 c-30 59 -28
62 40 81 44 12 103 6 146 -17 30 -15 30 -15 46 23 25 57 29 165 8 186 -25 25
-35 21 -29 -12z"/>
<path d="M4990 14554 c0 -27 -5 -303 -10 -614 -9 -554 -9 -565 10 -584 24 -24
84 -27 106 -5 11 12 19 72 34 245 38 463 74 983 68 990 -4 3 -52 8 -107 11
l-101 6 0 -49z"/>
<path d="M18230 14529 c0 -39 16 -69 37 -69 23 0 96 51 86 61 -6 6 -108 39
-120 39 -2 0 -3 -14 -3 -31z"/>
<path d="M11400 14375 c0 -15 18 -40 24 -34 3 3 -1 14 -9 25 -8 10 -14 15 -15
9z"/>
<path d="M14823 13733 c-82 -285 -148 -524 -145 -532 4 -10 22 -12 86 -7 188
16 440 -23 610 -94 82 -34 67 -17 -44 50 -156 93 -335 118 -546 74 -27 -5 -33
-2 -51 25 l-20 32 114 372 c198 649 183 597 164 597 -14 0 -44 -92 -168 -517z"/>
<path d="M16445 14138 c-9 -39 -172 -821 -179 -859 l-6 -36 -158 -6 c-132 -4
-175 -9 -272 -35 -63 -17 -137 -40 -163 -51 -27 -12 -50 -21 -52 -21 -2 0 -15
15 -29 33 l-24 32 57 453 58 453 -28 -28 c-25 -27 -31 -52 -105 -487 l-78
-459 20 -33 c39 -68 268 -373 276 -368 4 3 8 21 8 40 0 38 8 41 51 18 17 -8
34 -14 39 -12 4 2 -45 76 -111 166 -65 89 -119 166 -119 171 0 5 35 18 78 30
149 40 253 53 421 56 l165 2 98 469 c54 258 96 475 93 482 -7 20 -34 14 -40
-10z"/>
<path d="M20156 13023 c3 -21 27 -299 55 -618 28 -319 53 -597 56 -617 4 -30
2 -38 -11 -38 -33 0 -235 -74 -341 -124 -189 -90 -427 -248 -573 -381 -59 -54
-63 -73 -5 -27 102 80 336 223 498 302 178 88 325 145 439 171 32 7 60 18 63
25 4 12 -104 1310 -112 1332 -2 6 -20 12 -39 12 -34 0 -34 -1 -30 -37z"/>
<path d="M18002 12412 c-10 -7 -12 -167 -10 -767 3 -718 4 -760 21 -763 10 -2
59 14 110 36 102 44 300 110 422 141 153 39 275 54 447 55 93 0 168 2 168 3 0
1 -42 12 -92 24 -119 30 -370 32 -486 6 -145 -33 -291 -93 -433 -178 l-36 -21
-47 27 -47 27 6 492 c3 270 8 589 11 709 5 224 4 232 -34 209z"/>
<path d="M10328 11989 c-28 -16 -21 -50 17 -89 l34 -35 -60 -75 c-150 -189
-227 -452 -199 -685 27 -229 111 -406 269 -568 160 -165 376 -267 599 -284 82
-7 72 7 97 -137 9 -55 11 -95 5 -105 -5 -9 -52 -59 -104 -111 -98 -97 -112
-124 -79 -151 28 -24 304 -17 431 10 115 24 288 83 310 105 33 33 8 58 -130
130 -73 38 -136 74 -139 78 -3 5 -12 48 -18 96 -7 48 -15 94 -17 103 -3 12 16
23 78 47 99 37 216 112 301 192 l62 58 50 -44 c51 -45 72 -53 93 -32 23 23 12
52 -35 100 -41 41 -47 53 -45 82 4 42 -24 64 -59 45 -18 -9 -26 -6 -50 17
l-30 28 -24 -29 c-31 -38 -31 -43 3 -78 l27 -29 -65 -58 c-353 -319 -886 -300
-1206 42 -157 168 -233 360 -234 586 0 215 73 414 206 561 35 40 38 41 56 25
17 -17 20 -16 48 11 28 27 29 30 13 47 -16 18 -15 20 20 49 45 37 50 74 12 91
-22 10 -31 8 -71 -20 -24 -18 -47 -32 -51 -32 -3 0 -23 16 -44 35 -43 38 -46
39 -71 24z"/>
<path d="M11555 10907 c-27 -34 -60 -76 -73 -94 -27 -39 -37 -41 -53 -11 -9
17 -9 24 3 32 17 13 42 56 35 62 -6 7 -72 -23 -84 -38 -7 -9 -7 -38 0 -90 11
-86 20 -93 76 -64 28 15 81 76 81 95 0 5 15 25 34 43 26 25 36 45 41 81 3 26
3 47 -2 46 -4 0 -30 -28 -58 -62z"/>
<path d="M10438 10800 l-26 -37 43 -54 c46 -59 90 -101 148 -144 l37 -27 0 26
c0 45 -44 129 -84 160 -20 15 -49 47 -64 71 l-27 43 -27 -38z"/>
<path d="M10607 10825 c-18 -13 -17 -15 17 -37 20 -13 39 -34 42 -48 44 -189
101 -281 172 -280 12 0 9 5 -10 17 -36 23 -49 88 -22 108 11 7 16 17 12 21 -4
3 4 15 17 26 34 27 31 35 -15 49 -22 7 -40 15 -40 19 0 4 18 19 40 34 45 30
54 63 18 70 -13 2 -59 8 -103 13 -44 5 -87 12 -95 16 -8 4 -23 0 -33 -8z"/>
<path d="M11620 10770 c-13 -8 -12 -10 3 -10 9 0 17 5 17 10 0 12 -1 12 -20 0z"/>
<path d="M10889 10459 c28 -29 35 -31 123 -36 99 -6 186 5 278 34 l55 18 -130
6 c-71 4 -181 7 -243 8 l-112 1 29 -31z"/>
<path d="M18310 9735 l0 -25 228 0 c125 0 244 -3 265 -6 36 -6 37 -6 37 25 l0
31 -265 0 -265 0 0 -25z"/>
<path d="M17140 9490 l0 -210 -77 -1 c-43 -1 -351 -5 -686 -8 l-608 -6 26 -50
c32 -66 83 -114 131 -126 22 -5 457 -9 973 -9 l935 0 -46 29 c-38 24 -53 43
-83 104 -70 146 -63 344 17 460 l19 27 -300 0 -301 0 0 -210z"/>
<path d="M8230 9482 l0 -209 -482 -6 c-265 -4 -571 -7 -680 -7 -129 0 -198 -4
-198 -10 0 -24 51 -109 80 -133 17 -15 47 -31 68 -37 24 -6 360 -10 977 -10
795 1 935 3 910 14 -45 20 -91 73 -121 141 -23 51 -28 77 -32 170 -3 94 -1
120 18 175 12 35 31 77 41 92 l20 28 -300 0 -301 0 0 -208z"/>
<path d="M15095 9248 c14 -45 56 -108 92 -135 32 -25 47 -28 122 -31 l86 -4
-42 30 c-28 21 -51 51 -73 96 l-33 66 -79 0 c-78 0 -79 0 -73 -22z"/>
<path d="M15445 9233 c46 -111 92 -143 214 -150 l86 -5 -30 20 c-43 27 -79 72
-101 126 l-19 46 -83 0 -82 0 15 -37z"/>
<path d="M6185 9238 c14 -45 67 -118 103 -140 27 -17 55 -23 121 -26 l86 -4
-30 20 c-41 26 -84 78 -107 130 l-19 42 -80 0 c-79 0 -80 0 -74 -22z"/>
<path d="M6530 9235 c31 -81 84 -137 147 -154 21 -6 65 -11 98 -10 51 0 57 2
40 12 -41 24 -93 87 -110 131 l-18 46 -83 0 -84 0 10 -25z"/>
<path d="M18745 9150 c-27 -5 -83 -9 -122 -9 l-73 -1 0 -30 0 -30 148 0 148 0
-4 40 c-5 44 -4 44 -97 30z"/>
<path d="M18310 9115 c0 -20 5 -25 25 -25 20 0 25 5 25 25 0 20 -5 25 -25 25
-20 0 -25 -5 -25 -25z"/>
<path d="M14628 9003 c-115 -123 -127 -397 -25 -550 l32 -48 1733 -3 1733 -2
-29 42 c-56 83 -74 137 -80 237 -7 136 18 230 85 319 l24 32 -1270 0 -1269 0
-40 -59 c-56 -84 -76 -166 -69 -283 3 -51 8 -103 12 -115 7 -23 7 -23 -109
-23 -135 0 -129 -5 -141 116 -12 120 29 271 92 337 l27 27 -110 0 c-107 0
-111 -1 -136 -27 -81 -87 -119 -268 -84 -401 l13 -52 -118 0 -118 0 -10 38
c-16 57 -13 211 5 273 17 57 44 110 77 147 l20 22 -109 0 c-107 0 -111 -1
-136 -27z"/>
<path d="M9090 8828 c-13 -57 -10 -235 5 -270 7 -17 -57 -18 -1259 -18 -877 0
-1266 -3 -1266 -10 0 -15 28 -68 53 -102 l21 -28 1315 0 1316 0 -64 63 c-92
89 -121 138 -121 205 0 29 5 84 11 123 13 87 6 113 -11 37z"/>
<path d="M5650 8535 c0 -13 44 -92 63 -112 19 -21 29 -23 128 -23 l108 0 -35
57 c-19 31 -34 63 -34 70 0 10 -27 13 -115 13 -63 0 -115 -2 -115 -5z"/>
<path d="M6110 8535 c0 -13 44 -92 63 -112 19 -21 29 -23 129 -23 l109 0 -25
33 c-14 18 -32 50 -41 70 l-15 37 -110 0 c-61 0 -110 -2 -110 -5z"/>
<path d="M21440 7633 c0 -29 2 -29 19 5 10 18 9 22 -4 22 -10 0 -15 -9 -15
-27z"/>
</g>
</svg>
